<?xml version="1.0" encoding="utf-8"?>
<!-- Generator: Adobe Illustrator 27.5.0, SVG Export Plug-In . SVG Version: 6.00 Build 0)  -->
<svg version="1.1" id="Layer_1" xmlns="http://www.w3.org/2000/svg" xmlns:xlink="http://www.w3.org/1999/xlink" x="0px" y="0px"
	 viewBox="0 0 800 800" style="enable-background:new 0 0 800 800;" xml:space="preserve">
<g>
	<polygon points="361.051,106.698 360.613,107.573 362.363,109.323 367.613,112.386 373.3,116.76 378.987,120.26 379.425,120.479 
		379.425,120.698 380.737,121.135 381.175,122.885 383.508,123.177 384.675,123.76 390.799,127.697 391.784,127.807 
		392.549,128.135 392.891,127.93 394.737,128.135 395.612,130.322 399.111,132.51 401.299,133.385 401.736,132.072 403.486,131.635 
		403.486,130.322 400.424,128.135 400.205,128.025 399.111,127.26 396.924,126.385 394.737,125.291 394.737,125.072 
		393.424,124.635 391.674,123.76 388.549,121.885 385.112,119.385 378.112,115.448 373.3,112.823 370.238,111.073 362.801,107.136 	
		"/>
	<polygon points="228.495,33.348 229.807,34.077 232.432,34.733 235.495,36.264 235.057,37.577 235.932,38.014 235.932,37.139 
		238.557,37.577 243.369,39.764 243.369,39.589 245.994,40.639 249.056,42.389 251.244,42.608 251.244,42.827 253.431,42.827 
		253.431,43.702 253.641,43.667 253.869,44.577 257.369,47.201 257.719,47.271 258.244,47.639 264.806,51.093 264.806,51.139 
		264.972,51.18 266.556,52.014 276.618,56.388 280.117,56.388 280.117,56.097 280.555,55.951 280.117,55.404 280.117,55.076 
		277.055,51.576 276.235,51.248 276.18,51.139 275.84,51.09 272.055,49.576 271.805,49.389 271.43,49.326 270.493,48.951 
		269.786,49.052 269.18,48.951 268.655,49.214 267.431,49.389 266.118,48.514 257.369,44.577 256.931,43.264 257.66,42.827 
		258.244,42.827 259.118,41.952 258.681,40.202 253.328,38.966 252.556,38.452 246.869,36.702 242.932,36.264 240.744,35.389 
		236.37,34.077 230.682,31.89 225.87,31.015 225.87,31.89 228.058,33.202 	"/>
	<polygon points="62.691,445.744 57.563,445.316 57.004,444.869 54.816,444.869 53.941,445.744 54.379,447.056 56.129,447.494 
		57.004,448.369 61.378,449.243 63.128,446.619 	"/>
	<polygon points="77.565,384.934 80.628,385.372 81.502,386.684 84.127,387.122 84.127,385.372 83.777,384.672 83.69,384.059 
		83.44,383.997 83.252,383.622 80.19,383.184 78.003,381.434 76.253,380.997 75.815,382.309 	"/>
	<polygon points="322.115,615.922 321.678,615.048 321.409,614.711 319.053,610.673 313.366,602.798 312.053,602.361 
		312.053,603.236 314.241,606.736 319.49,613.735 322.99,620.735 323.865,620.735 323.865,619.422 322.115,615.923 	"/>
	<polygon points="463.421,160.946 467.358,160.946 469.108,161.821 468.67,160.071 462.546,157.008 459.046,154.383 
		458.608,154.821 461.233,158.758 	"/>
	<polygon points="70.566,375.747 73.628,377.06 75.815,377.497 75.815,376.185 73.19,374.872 72.753,371.81 71.003,370.497 
		69.253,370.06 69.253,371.372 70.566,373.122 	"/>
	<polygon points="364.551,114.135 362.363,113.698 362.363,114.573 363.676,115.885 367.176,117.635 371.55,120.26 374.175,121.135 
		374.175,120.26 371.55,118.51 	"/>
	<polygon points="77.128,415.558 77.565,413.37 73.628,412.933 72.753,413.37 72.753,415.558 73.628,416.433 75.815,416.87 	"/>
	<polygon points="290.617,62.951 292.367,63.388 293.242,61.638 287.992,58.576 285.805,57.701 286.242,59.451 	"/>
	<polygon points="674.285,401.558 675.597,401.121 673.847,400.246 672.973,397.184 669.91,395.871 667.723,395.434 
		667.723,395.871 669.473,398.059 671.223,398.934 671.223,399.809 674.285,400.683 	"/>
	<polygon points="483.107,179.32 485.295,179.757 485.732,181.507 488.794,184.132 490.544,184.569 490.544,181.945 
		487.482,178.882 485.295,178.882 485.295,178.007 483.107,176.257 480.482,175.82 480.482,178.882 481.795,178.445 	"/>
	<polygon points="250.369,44.139 247.744,43.702 248.619,45.451 255.181,48.951 256.931,49.826 256.494,48.514 254.306,46.764 	"/>
	<polygon points="113.438,202.506 116.063,202.069 117.813,202.506 120.438,204.693 122.188,205.131 122.625,203.818 
		118.251,200.756 113.876,200.756 	"/>
	<polygon points="654.161,407.246 651.974,406.371 651.974,407.246 653.724,409.433 658.098,412.058 659.848,412.933 
		659.848,412.058 657.661,410.308 	"/>
	<polygon points="124.375,199.444 124.375,198.131 116.501,196.381 116.501,197.694 118.251,199.444 	"/>
	<polygon points="459.921,160.946 458.608,159.196 455.109,156.133 452.484,155.258 452.484,155.696 457.733,160.946 	"/>
	<polygon points="118.688,473.742 121.75,473.742 121.313,472.867 116.938,471.555 113.001,471.117 114.313,472.43 	"/>
	<polygon points="699.221,392.371 700.096,391.934 697.471,389.747 693.971,387.559 691.784,386.684 694.409,389.747 	"/>
	<polygon points="126.738,195.856 125.688,195.506 121.75,193.756 117.376,192.444 117.376,193.756 118.688,194.631 123.5,196.381 
		124.375,196.819 127.875,198.569 129.625,198.131 129.625,196.819 127.438,195.944 	"/>
	<polygon points="104.689,103.636 103.814,102.324 99.439,101.011 99.002,102.761 101.626,103.636 	"/>
	<polygon points="445.484,145.634 447.234,146.071 447.234,145.196 443.297,142.134 441.109,141.259 442.422,143.446 	"/>
	<polygon points="603.414,294.376 602.101,293.064 599.914,292.626 599.476,293.939 602.976,296.126 	"/>
	<polygon points="682.597,405.496 682.597,404.183 681.722,403.746 677.347,402.433 677.347,403.308 678.66,404.621 
		680.847,404.621 680.847,405.496 	"/>
	<polygon points="658.973,388.434 660.723,389.309 660.723,387.997 659.411,385.809 657.661,385.372 657.223,386.684 	"/>
	<polygon points="562.728,592.299 562.728,593.174 565.79,596.674 568.415,597.549 566.228,594.924 	"/>
	<polygon points="103.814,109.323 104.689,111.511 107.751,111.073 107.751,110.198 104.251,108.886 	"/>
	<polygon points="517.23,212.568 518.105,213.443 520.73,213.005 520.293,211.693 518.98,211.693 518.543,210.381 517.23,210.381 	
		"/>
	<polygon points="659.848,382.309 655.911,378.81 654.161,378.372 654.161,378.81 658.536,382.747 	"/>
	<polygon points="555.291,615.485 555.728,613.735 553.979,612.86 553.541,615.923 	"/>
	<polygon points="450.734,150.009 447.671,150.009 447.671,151.759 450.734,151.321 	"/>
	<polygon points="664.223,391.934 663.785,392.809 665.098,394.121 666.848,394.996 666.41,392.809 	"/>
	<polygon points="683.472,380.559 683.472,379.685 682.16,378.372 679.972,377.497 679.972,378.372 681.285,379.685 	"/>
	<polygon points="602.976,297.876 606.038,298.751 605.601,297.001 602.976,296.126 602.539,296.564 	"/>
	<polygon points="350.989,88.762 348.801,86.574 346.177,85.699 346.177,86.574 348.801,87.887 	"/>
	<polygon points="131.812,199.006 131.812,200.319 134.875,200.756 134.437,199.444 	"/>
	<polygon points="307.241,66.45 304.179,64.7 301.991,64.263 301.991,64.7 305.491,66.888 	"/>
	<polygon points="179.935,43.702 178.623,41.514 176.435,41.514 176.873,42.827 	"/>
	<polygon points="305.054,600.173 304.179,598.423 301.116,595.799 301.116,596.674 303.741,599.736 	"/>
	<polygon points="118.251,270.753 116.938,270.315 116.063,270.753 116.063,272.065 117.813,272.502 	"/>
	<polygon points="392.549,132.51 392.549,133.385 394.737,135.134 396.487,135.572 395.612,134.259 	"/>
	<polygon points="694.846,537.177 697.034,537.614 696.596,536.302 694.409,535.864 	"/>
	<polygon points="540.854,232.692 540.417,231.38 538.229,230.505 539.104,232.255 	"/>
	<polygon points="531.23,216.943 529.917,216.505 529.042,218.693 530.355,218.693 	"/>
	<polygon points="511.981,200.756 510.668,200.319 509.793,202.943 511.981,202.069 	"/>
	<polygon points="676.035,507.428 677.785,507.866 677.347,506.553 675.597,505.678 	"/>
	<polygon points="76.69,394.996 78.878,395.434 78.878,394.121 78.003,393.684 76.69,394.121 	"/>
	<polygon points="262.618,43.702 260.868,42.827 260.868,44.577 262.181,45.014 	"/>
	<polygon points="544.792,606.298 543.042,605.861 543.042,607.61 544.354,607.61 	"/>
	<polygon points="531.23,596.674 529.042,596.674 529.042,597.111 531.667,598.423 	"/>
	<polygon points="683.909,422.995 683.472,421.682 681.722,421.245 682.16,422.557 	"/>
	<polygon points="711.908,416.87 709.721,415.995 709.283,416.87 711.471,417.745 	"/>
	<polygon points="78.878,305.313 78.003,305.313 76.253,306.188 76.253,307.063 78.44,306.626 	"/>
	<polygon points="522.918,213.88 522.48,212.131 521.605,212.131 521.168,213.88 	"/>
	<polygon points="142.312,204.256 142.312,202.943 140.125,202.069 140.125,202.943 140.999,202.943 140.999,203.818 	"/>
	<polygon points="104.251,178.445 102.064,178.445 102.501,179.32 104.689,179.757 	"/>
	<polygon points="367.613,104.948 367.613,106.261 369.363,106.698 369.363,105.386 	"/>
	<polygon points="326.49,79.137 324.303,79.137 324.74,80.012 326.49,80.887 	"/>
	<polygon points="277.93,75.2 277.93,74.325 275.305,73.888 275.743,74.762 	"/>
	<polygon points="284.93,63.826 284.93,62.513 282.742,62.076 283.18,63.388 	"/>
	<polygon points="637.099,329.375 635.349,328.937 635.349,329.812 637.537,330.687 	"/>
	<polygon points="138.812,201.194 136.625,200.756 136.625,201.631 138.812,202.069 	"/>
	<polygon points="113.001,189.382 115.188,189.819 115.188,188.944 113.438,188.507 	"/>
	<polygon points="301.991,66.45 300.679,66.013 300.241,67.325 301.991,67.763 	"/>
	<polygon points="276.18,61.638 276.618,60.326 274.43,59.451 274.43,60.326 	"/>
	<polygon points="532.98,601.923 534.729,602.361 534.292,601.048 532.98,600.611 	"/>
	<polygon points="675.16,411.62 675.16,410.308 673.41,409.871 673.847,411.183 	"/>
	<polygon points="136.187,209.506 136.187,208.193 134.875,207.756 134.875,209.506 	"/>
	<polygon points="364.988,103.636 364.551,104.511 366.301,105.386 366.301,104.073 	"/>
	<polygon points="358.863,97.949 357.551,97.949 356.676,99.699 358.426,99.261 	"/>
	<polygon points="188.247,41.077 186.935,41.077 186.935,41.952 188.685,42.827 	"/>
	<polygon points="82.377,414.245 80.628,413.808 80.628,414.683 82.377,415.12 	"/>
	<polygon points="718.47,412.933 717.158,412.933 716.283,413.37 716.283,414.245 718.47,413.808 	"/>
	<polygon points="675.597,397.184 675.597,396.309 673.41,395.434 673.847,396.309 	"/>
	<polygon points="644.536,337.687 642.787,336.812 642.787,337.687 644.099,338.999 	"/>
	<polygon points="501.044,185.882 499.731,185.444 499.731,186.757 501.044,187.194 	"/>
	<polygon points="388.612,130.322 389.049,131.197 391.237,132.072 390.799,131.197 	"/>
	<polygon points="546.979,612.423 547.854,612.86 548.291,611.548 546.979,611.11 	"/>
	<polygon points="473.92,574.8 474.358,573.05 473.045,572.612 	"/>
	<polygon points="687.847,426.057 688.722,426.495 690.034,426.057 687.847,425.182 	"/>
	<polygon points="646.724,406.371 647.161,405.058 645.849,404.621 645.849,405.933 	"/>
	<polygon points="521.168,206.881 519.418,206.443 519.418,207.318 520.73,207.756 	"/>
	<polygon points="373.738,111.073 375.488,110.198 373.738,109.761 	"/>
	<polygon points="215.808,46.764 214.496,46.326 214.058,47.201 215.808,47.639 	"/>
	<polygon points="562.728,620.297 562.728,618.985 561.416,618.985 561.416,619.86 	"/>
	<polygon points="536.917,604.111 535.604,603.236 535.604,604.548 536.917,604.986 	"/>
	<polygon points="511.981,589.236 513.731,590.111 512.856,588.361 511.981,588.361 	"/>
	<polygon points="685.222,414.683 685.659,413.808 683.909,412.933 683.909,413.808 	"/>
	<polygon points="97.252,307.063 97.252,307.938 98.564,308.376 98.564,307.063 	"/>
	<polygon points="280.555,44.139 278.805,43.702 278.805,44.139 280.555,45.014 	"/>
	<polygon points="190.872,41.952 189.559,41.952 189.559,42.827 190.872,43.264 	"/>
	<polygon points="546.979,607.173 546.979,608.048 547.854,608.485 548.291,607.173 	"/>
	<polygon points="89.815,463.243 88.502,462.805 88.502,463.68 89.815,464.118 	"/>
	<polygon points="667.723,390.184 666.41,389.747 666.41,390.621 667.723,391.059 	"/>
	<polygon points="517.23,209.943 518.105,209.068 516.355,208.631 	"/>
	<polygon points="466.92,168.82 466.92,167.945 465.608,167.508 465.608,168.383 	"/>
	<polygon points="415.736,126.385 415.736,125.51 414.423,125.072 414.423,125.947 	"/>
	<polygon points="379.862,124.635 381.175,125.072 381.175,124.197 379.862,123.76 	"/>
	<polygon points="266.556,55.513 267.431,54.639 265.681,54.201 	"/>
	<polygon points="542.167,625.547 543.042,625.985 543.479,625.11 542.167,624.672 	"/>
	<rect x="530.355" y="605.423" width="0.875" height="1.312"/>
	<polygon points="101.189,470.242 103.376,469.805 102.064,469.367 	"/>
	<rect x="62.691" y="450.118" width="1.312" height="0.875"/>
	<rect x="689.597" y="407.683" width="0.875" height="1.312"/>
	<polygon points="640.599,333.312 639.724,333.312 639.724,334.187 641.037,334.624 	"/>
	<polygon points="399.111,136.884 397.361,136.447 397.799,137.322 	"/>
	<rect x="123.938" y="89.637" width="1.312" height="0.875"/>
	<rect x="261.306" y="53.326" width="1.312" height="0.875"/>
	<polygon points="242.932,44.577 244.244,44.139 242.494,43.702 	"/>
	<polygon points="181.685,44.577 179.935,43.702 180.372,44.577 	"/>
	<polygon points="574.977,615.485 573.665,614.173 573.665,615.048 	"/>
	<polygon points="718.908,539.801 718.908,540.676 720.22,540.239 	"/>
	<polygon points="94.627,466.743 95.939,467.18 95.939,466.305 95.064,466.305 	"/>
	<polygon points="74.065,439.619 74.503,438.307 73.628,438.307 	"/>
	<polygon points="676.035,405.933 674.722,405.933 674.722,406.371 676.035,406.808 	"/>
	<polygon points="655.911,384.934 657.661,385.372 655.911,384.497 	"/>
	<polygon points="83.69,375.31 85.002,375.747 85.002,374.872 84.127,374.872 	"/>
	<polygon points="81.065,345.124 79.753,345.124 79.753,345.561 81.065,345.999 	"/>
	<polygon points="500.606,190.257 501.481,190.257 501.481,189.382 500.606,188.944 	"/>
	<polygon points="494.482,189.382 494.482,190.257 495.794,189.819 	"/>
	<polygon points="318.615,90.512 317.303,90.074 317.303,90.949 	"/>
	<polygon points="352.739,89.199 350.989,88.762 351.864,89.637 	"/>
	<rect x="557.916" y="614.173" width="0.875" height="0.875"/>
	<rect x="536.917" y="605.861" width="0.875" height="0.875"/>
	<polygon points="646.724,548.551 645.411,548.114 645.411,548.551 	"/>
	<polygon points="94.627,440.494 95.939,440.494 94.627,440.056 	"/>
	<polygon points="71.878,430.869 73.19,430.869 71.878,430.432 	"/>
	<polygon points="692.221,427.37 692.221,427.807 693.534,427.807 	"/>
	<polygon points="692.659,414.683 691.784,414.245 692.221,415.558 	"/>
	<rect x="535.604" y="229.192" width="0.875" height="0.875"/>
	<polygon points="515.043,197.694 515.043,198.131 516.355,198.131 	"/>
	<polygon points="90.252,474.18 91.127,474.18 90.252,473.305 	"/>
	<polygon points="664.66,416.433 663.785,416.433 664.223,417.308 	"/>
	<polygon points="671.223,404.183 672.098,404.183 671.223,403.308 	"/>
	<polygon points="85.002,382.747 85.877,382.309 85.002,381.872 	"/>
	<polygon points="85.44,378.81 85.44,379.685 86.315,379.247 	"/>
	<polygon points="623.975,317.563 623.975,318.438 624.85,318.438 	"/>
	<polygon points="104.689,283.439 104.689,284.314 105.564,284.314 	"/>
	<polygon points="556.603,245.816 555.728,245.816 556.166,246.691 	"/>
	<polygon points="546.979,237.504 546.104,237.504 546.541,238.379 	"/>
	<polygon points="525.542,210.381 524.667,210.381 525.105,211.256 	"/>
	<polygon points="103.814,188.069 104.251,188.944 104.689,188.069 	"/>
	<polygon points="174.685,73.013 175.56,73.013 174.685,72.138 	"/>
	<polygon points="231.995,41.077 231.557,40.202 231.12,40.639 	"/>
	<path d="M736.872,633.805l-4.812-0.875l-1.313-0.875l-2.187-2.625l-2.625-2.187l-0.438-0.175l-6-4.2l-4.354-3.208l-4.958-3.792
		l-4.083-3.5l-2.917-2.625l-1.313-1.312l-0.875-0.875l-1.375-1.125l-1.687-1.5l-1.312-0.954l-0.438-0.358l-3.499-2.625l-1.138-0.875
		l-3.675-3.062l-0.691-0.296l-0.184-0.141l-2.187-2.187l2.187,0.438l1.75,1.25v0.063l2.042,1.458l1.458,1.167l1.75,1.167
		l1.312,1.021l0.547,0.219l0.328,0.219l0,0l2.625,1.75l2.187,0.875v-0.875l-1.75-2.187l-4.812-3.937l-0.187-0.125l-2-1.625
		l-0.438-0.318v-0.119l-1.75-1.312l-0.486-0.194l-2.139-1.555l-3.646-2.917l-1.166-1.021l-6.125-4.812l-5.25-4.375l-4.812-3.937
		l-3.5-3.5l-3.5-3.062l-4.375-3.5l-3.937-3.062l-5.687-5.25l-0.778-0.681l-0.097-0.194l-2.625-2.187l-4.812-4.375l-0.875-3.062
		l-1.875,0.375l-1.333-0.667l-0.628-0.449l-1.371-1.234l-0.043-0.213l-1.05-0.875h1.05l-3.062-2.625l-2.187-1.312v0.437l-0.151-0.06
		l-3.548-3.002l-0.101-0.093l3.335,2.334l1.312,0.437l4.375,2.187h4.375l2.187,0.437l-0.437-1.312l-1.75-0.875l-3.5-2.187
		l-7.5-4.125l-0.375-0.25l-2.187-2.187l-0.729-0.583l-1.021-1.167l-1.859-0.984l-2.953-1.641l-0.394-0.131l-2.231-1.181
		l-1.312-2.187l3.062,0.437v-0.875l-1.313-1.312h-2.625l-1.75-1.312l-5.687-3.062l-4.18-2.572l-0.605-0.545l-3.5-3.5l-3.5-3.062
		l-0.438-0.437l-1.873-1.873l2.108,0.703l2.8,2.1l4.812,3.062l2.187,1.75l5.25,3.5l4.375,0.875l2.625,3.062l2.625,1.312l7,2.625
		l3.937,3.062l7.875,5.687l3.062,1.312h3.062v-1.312l-3.062-2.187l-0.923-0.632l-2.139-1.556l-0.324-0.13l-4.926-3.37l-4.375-3.062
		l-1.313-2.187l1.313,0.437l2.625,1.75h0l3.937,2.625l0.484,0.138l2.579,1.612l0,0l0.052,0.036l0.85,0.971l0.875,1.125l0.569,0.525
		l0.306,0.35l1.4,1.225l3.412,3.15l7.875,5.25l7.875,4.375l4.812,3.5l0.875,0.787v0.087l3.5,3.062l1.75,0.438v-1.312l-0.875-1.312
		l-2.187-1.75h-0.219l-2.406-1.75l-3.634-2.827l-0.458-0.687l0.128,0.068l2.028,0.676l0.159,0.199l0.044-0.131l0.394,0.131v-1.312
		l5.687,2.187l2.625-0.438l3.937,1.75l4.812-0.438v-0.875l10.062,3.062l3.5,0.438l10.5,2.625l3.062,0.437v-0.437l-5.25-2.187
		l-1.75-2.187l1.75,0.875l5.687,1.312l4.375,0.437l-1.312-1.312l-11.374-5.25l-6.125-3.5l-6.562-3.937l-4.375-3.062h1.312l3.5,1.75
		l3.937,1.312l2.625,1.312l4.812,0.875l7,1.75v-0.875l-2.187-1.313l-9.187-4.375l-0.875-1.312l1.75,0.875l11.374,5.25l6.562,2.625
		l3.062,0.438l-0.875-1.75l-2.625-1.75l-4.812-0.875l-1.312-0.875l-2.187-2.625l-2.625-2.187l-0.438-0.175l-6-4.2l-4.354-3.208
		l-4.958-3.792l-4.083-3.5l-2.917-2.625l-1.312-1.312l-0.875-0.875l-1.375-1.125l-1.687-1.5l-1.312-0.954l-0.438-0.358l-3.499-2.625
		l-1.138-0.875l-3.675-3.062l-0.691-0.296l-0.183-0.141l-2.187-2.187l2.187,0.437l1.75,1.25v0.063l2.042,1.458l1.458,1.167
		l1.75,1.167l1.312,1.021l0.547,0.219l0.328,0.219l0,0l1.34,0.893v1.24l0.875,0.438l0.298-0.895l0.112,0.075l2.187,0.875v-0.875
		l-0.834-1.042l1.299-0.325l-3.062-3.5l-3.062-2.625l-4.812-3.937l-2.227-1.75l-2.585-2.187h-0.199l-1.114-0.875l-6.562-5.687
		l-6.125-5.25l-4.812-3.937l-0.438-1.312l5.687,3.937l3.5,2.625l2.187,0.875v-1.312l0.875,0.437l0.438,2.187l1.312,1.312l3.5,2.187
		l3.062,0.875v2.187l2.187,1.75l0.438,0.438l1.313,1.312l2.625,2.625l5.687,4.375l5.25,3.062l3.937,0.875l1.312,1.75l3.5,3.937
		l4.375,3.937l4.812,3.5l2.625-0.437l1.312,0.437l0.875,3.5h1.313l-0.438-1.75l0.875-1.75l-0.438-1.75l-2.68-0.766l-2.133-1.422
		l-5.687-4.375l-4.375-4.375l-1.75-0.875v-0.875l-1.312-2.625l-1.313-0.437l0.438,1.312l-2.625-1.75l-1.313-2.187l1.75,0.875
		l0.875-0.437l0.875-1.75l3.062,1.312l4.812,4.812l2.625,1.75h1.75l-1.313-2.625l-2.625-0.875l-0.438-1.75l-3.062-2.625
		l-0.193-0.039l-1.557-1.274l-5.25-4.812l-1.75-0.875v-2.625h-1.313l-1.312-0.875l-0.438-3.062l2.187,0.437l-0.875-2.625
		l-0.875-4.375l3.937,2.625l2.187,1.312l3.5,3.5l1.312,0.438V482l1.75,1.75l1.75,0.875l1.75,1.312l2.187,2.187l2.625,1.75
		l5.25,3.937l1.969,1.531l2.406,1.969l0.168,0.034l7.269,5.654l2.187,2.187l3.062,1.75l2.187,0.437v-0.875l-0.729-0.583
		l-0.146-0.292l-2.5-1.75l-0.563-0.438l-0.088-0.017l-0.131-0.092l-5.906-4.266l-0.437-0.375l-5.25-4.875l-0.875-0.875l-0.117-0.058
		l-6.445-6.066l-2.187-2.187l0.875,0.437l3.102,2.585l-0.04,0.04l4.375,3.5l0.175,0.088l1.575,1.225l6.562,5.25l6.562,3.937
		l5.687,3.5l1.493,0.83l-0.181,0.045l2.625,1.312l7,3.937l1.75,0.437l0.875-1.312l-0.437-1.75l-0.328-0.164l-0.109-0.273
		l-6.125-2.625l-0.875-1.75v-1.312l-2.625-0.875l-0.783,1.174l-1.842-0.737l-3.5-2.187l-0.438-1.312l1.75-0.438l-0.875-1.312
		l-7-5.687l-6.125-4.812l-1.75-2.187l-3.937-3.062l-3.062-3.5l-3.937-4.375l-2.187-2.187l-0.875-1.75l2.187,0.437v1.312l2.625,2.187
		l3.062,0.437l1.312-0.437l-3.5-2.187l-0.875-2.187l-2.187-2.625l-2.187-2.187l-4.375-3.937l-3.062-3.5l-3.5-3.5l-0.875-0.875
		l-2.625-2.625l-0.069,0.206l-2.119-1.956l-3.062-3.5l-4.812-4.812l-3.062-3.062l-0.438-0.438l-2.845-2.626l-3.28-3.061
		l-0.875-0.875L659,428.627l-1.203-1.312l-2.297-2.625l-0.656-0.597l-0.656-0.716l-0.386-0.232l-3.114-2.831l-1.892-1.703
		l0.142-0.047l-2.722-2.333l-1.653-2.479h1.312v-1.312l-2.227-2.506l0.04-0.119l-1.313-1.313l-6.124-6.562l-2.187-2.187l-1.75-0.875
		v1.312l1.312,1.75l0.328,0.301l0.109,0.137l0.875,0.766l0.932,0.854l0.353,1.059l0.188-0.564l1.48,1.357l1.422,1.777l3.062,2.625
		l1.75,3.062l-0.875-0.437l-3.937-3.937v0l-9.187-9.187l-5.25-5.687l-1.75-0.875v-0.875l-1.75-1.75l-0.875-3.937h-1.312
		l-0.438,0.875h-1.312v-0.875h-0.875v-0.875l-1.75-1.75l-0.875-2.187l-2.187-2.187l-1.75-0.437v-0.875l-2.187-1.75l-0.273-1.91
		l0.246,0.215l0.312,0.063l1.875,1.25l4.812,3.937l5.687,4.812l1.312,1.021l1.313,1.167l0.131-0.044l0.306,0.238v0.243l0.875,0.437
		l1.312,2.187h1.312l0.437-1.312l-0.437-0.35v-0.088l-1.203-0.875l-0.547-0.437l-0.083-0.021l-1.375-1l-0.729-0.729l-2.297-1.531
		l-4.265-3.281l-5.687-5.687h0.875l4.812,3.5l4.812,3.937l4.375,3.937l3.5,3.062l3.062,2.625l2.187,2.187l3.5,2.625l5.687,4.375
		l4.375,3.5l1.75-0.437l-3.062-3.5l-3.062-2.625l-4.812-3.937l-2.227-1.75l-2.585-2.187h-0.199l-1.114-0.875l-6.562-5.687
		l-6.125-5.25l-4.812-3.937l-0.438-1.312l5.687,3.937l3.5,2.625l2.187,0.875v-1.312l0.875,0.438l0.437,2.187l1.313,1.312l3.5,2.187
		l3.062,0.875v2.187l2.187,1.75l0.437,0.438l1.313,1.312l2.625,2.625l5.687,4.375l5.25,3.062l3.937,0.875l1.312,1.75l3.5,3.937
		l4.375,3.937l4.812,3.5l2.625-0.438l1.312,0.438l0.875,3.5h1.312l-0.437-1.75l0.875-1.75l-0.438-1.75l-2.68-0.766l-2.133-1.422
		l-5.687-4.375l-4.375-4.375l-1.75-0.875v-0.875l-1.312-2.625l-1.312-0.438l0.437,1.312l-2.625-1.75l-1.312-2.187l1.75,0.875
		l0.875-0.437l0.875-1.75l3.062,1.312l4.812,4.812l2.625,1.75h1.75l-1.312-2.625l-2.625-0.875l-0.437-1.75l-3.062-2.625
		l-0.193-0.039l-1.557-1.274l-5.25-4.812l-1.75-0.875v-2.625h-1.313l-1.312-0.875l-0.437-3.062l2.187,0.438l-0.875-2.625
		l-0.875-4.375l3.937,2.625l2.187,1.312l3.5,3.5l1.312,0.437v0.875l1.75,1.75l1.75,0.875l1.75,1.312l2.187,2.187l2.625,1.75
		l5.25,3.937l1.969,1.531l2.406,1.969l0.168,0.034l7.269,5.654l2.187,2.187l3.062,1.75l2.187,0.437v-0.875l-0.729-0.583
		l-0.146-0.292l-2.5-1.75l-0.563-0.438l-0.088-0.017l-0.131-0.092l-5.906-4.266l-0.438-0.375l-5.25-4.875l-0.875-0.875l-0.117-0.058
		l-6.445-6.066l-2.187-2.187l0.875,0.437l3.102,2.585l-0.04,0.04l4.375,3.5l0.175,0.087l1.575,1.225l6.562,5.25l6.562,3.937
		l5.687,3.5l1.493,0.83l-0.181,0.045l2.625,1.312l7,3.937l1.75,0.437l0.875-1.312l-0.438-1.75l-0.328-0.164l-0.109-0.273
		l-6.125-2.625l-0.875-1.75v-1.312l-2.625-0.875l-0.783,1.174l-1.842-0.737l-3.5-2.187l-0.438-1.312l1.75-0.438l-0.875-1.312
		l-7-5.687l-6.125-4.812l-1.75-2.187l-3.937-3.062l-3.062-3.5l-3.937-4.375l-2.187-2.187l-0.875-1.75l2.187,0.437v1.312l2.625,2.187
		l3.062,0.437l1.312-0.437l-3.5-2.187l-0.875-2.187l-2.187-2.625l-2.187-2.187l-4.375-3.937l-3.062-3.5l-3.5-3.5l-0.875-0.875
		l-2.625-2.625l-0.069,0.206l-2.119-1.956l-3.062-3.5l-4.812-4.812l-3.062-3.062l-0.438-0.438l-2.845-2.626l-3.28-3.061
		l-0.875-0.875l-0.875-0.875l-1.203-1.312l-2.297-2.625l-0.656-0.597l-0.656-0.716l-0.386-0.232l-3.114-2.831l-1.892-1.703
		l0.142-0.047l-2.722-2.333l-1.653-2.479h1.312v-1.312l-2.227-2.506l0.04-0.119l-1.313-1.313l-6.124-6.562l-2.187-2.187l-1.75-0.875
		v1.312l1.312,1.75l0.328,0.301l0.109,0.137l0.875,0.766l2.953,2.707l1.422,1.777l3.062,2.625l1.75,3.062l-0.875-0.437l-3.937-3.937
		v0l-9.187-9.187l-5.25-5.687l-1.75-0.875v-0.875l-1.75-1.75l-0.875-3.937h-1.312l-0.438,0.875h-1.312v-0.875h-0.875v-0.875
		l-1.75-1.75l-0.875-2.187l-2.187-2.187l-1.75-0.437v-0.875l-2.187-1.75l-0.437-3.062h1.312v-0.875l-1.75-2.187l-3.937-3.062
		l-3.5-3.5l-6.562-5.687l-1.25-1.094l-0.938-1.094l-0.576-0.23l-0.737-0.645l-1.969-2.188l-1.531-1.75l-0.175-0.146l-0.263-0.292
		l-6.125-5.25l-5.687-5.25l-3.208-2.625l-2.042-1.75l-0.35-0.175l-1.4-1.089v-0.049l-1.75-1.312l-6.562-5.687l-0.933-0.817
		l0.058-0.058l-2.625-2.187l-3.062-2.625l-4.375-3.5l-2.187-2.187l-3.208-2.625l-3.791-3.5l-0.795-0.477l-0.079-0.398l-1.312-0.437
		l-3.5-3.5l-3.937-4.375l-2.187-2.187l-1.312-0.437v-0.875l-1.75-1.75l-2.187-1.312l-0.875-1.312l-0.962-0.525l-0.35-0.35
		l-3.062-1.75l-1.75-0.875l-0.437-1.312l-1.75-0.875v-0.875l-1.75-1.312l-7-4.375l-0.437-1.312l0.875-0.438l0.437-1.312
		l-1.312-0.875l-0.438-0.875l-1.312-1.75l-1.312-3.5l-0.875-0.437l-5.687-0.437v-1.312l-2.506-0.716l-3.182-2.784l-0.437-0.437
		l-2.916-1.555l-4.083-2.382l-0.35-0.263l-3.15-2.8l-2.625-5.25l-2.187-2.187l-3.937-4.375l-3.937-2.625l-4.375-3.062l-2.625-1.312
		l-4.375-3.182l-3.062-2.506l-0.438-0.175l-0.875-0.7l-1.313-0.875l-6.562-4.632l-4.812-3.68l-0.199-0.119l-1.551-1.193
		l-0.984-0.328l-1.641-0.984l-0.437-1.312l3.5-0.437l3.5,2.187h0l0.875,0.875l1.478,0.422l3.771,2.64v2.625l1.312,1.312l6.125,4.375
		l3.937,2.187l3.5,3.062l1.75,0.437l0.437-2.187l1.312,0.437l2.187,0.875l-0.438-1.312l-3.5-3.062l-2.625-0.437l-0.875,0.875
		l-3.937-2.625l0.438-2.187l-2.042-2.382l-0.146-0.243l-0.087-0.029l-0.35-0.408l-0.35,0.175l-0.525-0.175l-0.438,0.656
		l-0.438,0.219l-3.062-2.625l-3.937-3.062l-2.187-0.875v-0.875l-0.375-0.25l-0.063-0.187h-0.219l-1.969-1.312l-2.625-1.312
		l-2.625-2.187l-7.875-5.25l-2.625-1.312l-3.062-2.187l-11.812-7.875l-5.687-3.937l-3.062-1.312l-2.187-1.312l-3.5-2.625
		l-4.812-3.062l-8.75-3.937l-0.077,0.154l-0.36-0.154v0.875l2.187,2.625h0.063l0.375,0.437l0.875,3.062h-3.062v0.437l2.625,2.187
		l4.812,2.625l6.125,3.937l2.187,0.875v0.875l2.187,0.437l-0.437-1.312l-0.313-0.187l-0.125-0.25h0.313l1.875,1.312l0.087,0.087
		l-1.4,0.35l0.875,1.75l6.125,3.5l5.687,3.5l8.75,5.25l7.875,4.812l2.187,2.187l-5.687-3.062l-1.75-0.875l-0.437,0.875l1.75,1.75
		l4.812,2.625l3.208,2.625l2.807,2.406l3.609,3.281l1.312,1.148l0.438,0.41v0.191l1.021,0.766l2.917,2.734l2.187,2.187l-3.5-1.312
		l-5.25-3.062l-0.365-0.146l-0.51-0.292l-0.437-0.088l-0.875-0.35l-0.146,0.146l-0.729-0.146l-1.75,0.875v0.875l2.625,2.625
		l1.914,1.504l0.273,0.246l0.011-0.022l3.926,3.085l0.52,0.356l1.23,0.957l0.405,0.162l3.387,2.317l3.208,2.333l7.437,5.687
		l0.017-0.035l1.732,1.347l2.227,1.75l2.585,2.188l0.438,0.187l0.875,0.687l0.438,0.375v0.063l5.687,4.812l1.225,2.45l0.02,0.139
		l-5.62-3.026l-1.75,0.437l-1.458-0.729l-2.042-1.458l-0.312-0.063l-0.563-0.375l-1.75-1.75h0.875l-0.125-0.375l0.125-0.063
		l-0.243-0.292l-0.194-0.583l-0.954-0.795l-0.795-0.955l-0.84-0.735l-0.035-0.14l-2.625-2.187l-7-5.687l-4.812-3.062l-4.375-3.062
		l-1.347-0.857l0.035-0.017l-3.5-2.187l-2.625-0.875l0.875,1.312l4.375,3.5h-0.766l-1.276-0.729l-5.833-3.646l-12.249-7.875
		l-10.062-6.125l-9.187-6.125l-4.375-3.062l-2.187,0.875v-0.875l-0.398-0.318l-0.04-0.119l-0.656-0.437l-1.094-0.875l-2.187-2.187
		h1.312l-1.312-1.312l-5.25-1.312l-4.375-2.187l-3.937-2.625l-1.312-0.729l-2.187-1.458v-0.875l1.312-0.437l0.437-0.875
		l-2.625-0.875l-4.375-1.75l-3.5-1.75l-2.042-0.681l0.292-0.194l-2.187-0.437l-3.5-3.062h-0.875l-1.312-0.437h-3.062h-1.312
		l-1.312-0.875l-0.463-1.235l0.026-0.077l-0.875-2.187h1.312l3.062,1.312l8.312,3.937l0.875,0.437l11.374,5.687l0,0l0.875,0.437
		l1.312,0.292l3.062,1.021l5.25,3.062l5.687,1.75l1.75-0.437l-1.75-1.75l-2.625-0.875v-0.875l-0.875-3.062l-1.312-0.875
		l-1.187-0.625l-1.875-1.125l-0.19,0.038l-2.462-1.296l0.027-0.055l-0.547-0.219l-2.078-1.094l-2.279-1.266l0.092-0.046l-1.75-0.875
		l-0.875-2.187h-0.875l0.438-0.875h1.312v-2.625l0.875-2.187l-5.25-3.062l-0.875-3.062h-0.875l-0.437,1.312h-1.75l-2.625-1.312
		l-1.75-2.625h-2.187v-0.875l-0.365-0.219l-0.073-0.219l-0.74-0.269l-1.01-0.606l-1.458-0.292L319.49,71.7l-4.375-1.75l-2.625-0.437
		v0.875l3.062,2.625l8.312,4.375l0.589,0.168l0.286,0.153v0.117l0.35,0.07l3.15,1.68l-0.875,2.187h-4.375v-0.875l-0.875-0.437
		l-4.375-0.875l-0.875-1.75l-3.062-0.875l-0.076,0.019l-1.674-0.456l-4.442-1.615l-1.508-0.66l-4.55-2.1l-2.187-0.962l-2.625-1.225
		l-1.75-0.7l-4.375-1.925l-1.531-0.437l-1.094-0.437l-0.875-0.125l-2.625-0.75l-10.499-3.5l-3.937-0.875l-3.5-2.187h-2.625
		l-4.812-1.75l-3.5-1.75h-2.187l-19.249-5.25l-1.069-0.146l-1.118-0.292l-3.516-0.34l-3.921-0.535l-3.634-0.196l-2.491-0.241
		l-5.135-0.171l-4.927-0.266l-7.437-0.875l-9.187-2.187h-7.875v0.437l5.687,3.062v0.875l-2.187-0.437l-4.375-0.437v0.875l3.5,0.875
		l0.437,0.875l-5.25,0.875h-4.812l-3.5-0.437h-3.062l-0.437,0.875l3.937,0.875l3.937,1.312v0.875l-2.187,0.437l0.437,0.875
		l-0.278,4.176l-0.159,0.636l0.07,0.7l-0.07,1.05l0.292,1.167l0.146,1.458h0.219l0.219,0.875v5.25h0.875l5.687,0.875l4.812,0.875
		V75.2v3.937v0.875l0.656,0.437l0.219,0.437v1.531l-0.187,0.844l-0.25,0.25h-3.937l-3.062-0.875l-1.336-0.39l0.024-0.048
		l-1.312-0.328l-7.875-2.297l-7.875-1.641l-5.688-1.422l-2.624-0.75l-1.167-0.417l-3.645-1.458l-0.437-0.199V73.45l-4.9-2.144
		l-2.975-2.231l-3.5-0.875l-7.875-3.5l-0.875-0.175v-0.263l-3.5-0.437l-4.375-0.437l-0.437,0.437l-0.437,1.75h0.087l-0.087,0.437
		l-5.687-0.875l0.437,1.312l0.292,0.146l0.146,0.292l1.021,0.292l1.167,0.583h0.328l0.984,0.437l-1.312,0.875v0.875l3.062,0.875
		l0.437,0.875h-1.75l0.437,1.312l3.5,1.312l0.437,0.875l-6.562,1.312v0.875l6.125,0.437l-3.5,0.437l-1.158,0.515l-0.154-0.077
		l-2.625,1.312l0.437,0.875l4.375,0.875l3.937,0.437l2.625,0.437l4.375,3.937l1.312,2.187l-2.187,0.875l0.437,3.937l1.79,1.432
		l0.398,1.193l-1.312,1.75l4.812,1.75v0.875l-1.312,1.75l-1.312,0.437l-1.75,0.875l-0.437-0.875h-1.312l-0.437,1.75l-1.75-0.437
		l-6.125-3.062l-0.211,0.106l-0.226-0.106l-0.437,0.437l1.312,1.75l-3.937-0.437v0.875l3.937,1.312v0.787l-1.312,0.525l-1.312,0.875
		l1.75,0.875l2.187,0.437l-2.625,1.312l-3.062,1.312l-0.437,0.437l-1.75,0.875h-2.625l-3.062,1.75h-3.062l-1.75-0.437l0.875,3.5
		l0.044-0.022l0.394,1.772l-2.187-1.312l-3.5-0.437l-1.312,1.312l-2.187-0.437v-1.75l-0.875-0.437l-6.125-0.875l0.437,1.312
		l3.937,1.312v0.875l-1.312,0.875l1.312,1.312l2.187,0.875l0.875,3.062l1.312,0.875l2.187,1.75l-0.437,1.75l0.073,0.073
		l-0.073,0.365l0.612,0.175l0.262,0.262l0.386-0.077l1.801,0.515l0.875,0.875v4.375l0.875,0.875l-0.437,3.5l0.875,1.312l0.278,1.392
		l-0.216,1.295l-0.937,1.25l0.219,0.437l-0.219,0.437l2.187,2.625l3.5,1.75l0.875,1.75l1.312,0.875l0.437,1.312h-2.625l-0.875-0.875
		l-1.75-0.437l-1.75,1.312v3.062l-2.187,0.437l-0.437,0.875l0.437,2.187l1.75,3.5l3.062,2.625h3.5l0.437-0.437l0.437-0.437
		l-0.437-0.437v-0.438l-0.729-0.292l-0.146-0.146l-0.583-0.146l-0.521-0.208l-0.129-0.322l0.358-1.074l0.875-1.75l1.75,0.437
		l1.75,2.625l1.312-0.437l2.625-0.437l0.437,3.937h-3.937l-2.625,0.437l-2.187,0.875l0.437,0.875l2.625,1.312l1.021,1.021
		l0.292,1.167l-0.875,1.312l0.437,1.312l0.283,1.415l-0.721,2.522h-0.875l0.239,0.08l-2.863,0.358l-6.125-1.312l-0.875,0.437
		l-0.292,0.729l-0.146,0.146v0.219l-0.437,1.094l0.437,0.199v0.239l3.413,1.313l0.962,0.437l0.094-0.031l1.219,0.469l6.125,3.062
		l5.25,2.187l0.875,1.75h-2.625l-0.437,0.875l6.562,2.625l3.5,2.187l0.202,0.034l0.673,0.404l9.187,2.625l3.5,2.187l5.25,2.625l0,0
		l0.049,0.024l-0.896,0.359l-1.312,0.875l1.75,0.875l2.187,0.437l-0.48,0.24l-1.297-0.185v0.834l-0.848,0.424l-3.062,1.312
		l-0.437,0.437l-1.75,0.875h-2.625l-3.062,1.75h-3.062l-1.75-0.438l0.875,3.5l0.044-0.022l0.394,1.772l-2.187-1.312l-3.5-0.437
		l-0.902,0.902v-0.848l-2.598-0.433v-0.496l-0.875-0.438l-6.125-0.875l0.437,1.312l3.937,1.312v0.875l-1.312,0.875l1.312,1.312
		l2.187,0.875l0.763,2.671l-8.665-0.866l-8.312-1.75h-5.687l-3.062,0.875l-3.5,1.312l-0.13,0.347l-0.307,0.09l-0.7,2.45
		l-1.487,1.487l0.437,2.187l-1.75,2.187l1.75,0.437l0.437,2.187l3.062,0.875l-0.398,2.187h-0.04l-0.437,2.625l-1.312,0.875
		l0.875,0.875l0.875,2.187l0.292,0.437l1.021,3.062l2.625,5.687l1.312,0.875l4.375,3.937l4.812,0.438h3.5l1.312,0.438l0.437,2.187
		l-1.75,1.312l-0.437,1.75l3.062,2.187l-0.875,1.312l-0.875,2.625h0.875v-0.875l1.312,0.437l3.062-0.437l1.75,1.312h2.187
		l-0.437,1.312l-5.25,1.75v1.312l0.875,1.312l2.187-1.312l-1.312,1.312v3.062l-1.75,0.437l-0.875,2.625l-1.312,0.438l-2.187-1.312
		l-1.312,0.875l-1.312,2.625l-0.437,1.75l-2.187,0.438h-3.5l0.875,2.625l2.187,2.625l1.312,0.437l-0.437,3.5l-1.312,1.312
		l-2.625-0.437l-1.75-0.438v1.312l1.312,0.437l0.437,0.875l-2.625-0.437l0.875,1.75h-1.75l-1.312,2.187v7l-1.312,0.437l-0.087,0.087
		l-2.1,0.787l-6.125,3.5l-1.75,0.875l-1.178,0.942l-0.135-0.067l-1.01,0.841l-0.74,0.471l-2.187,1.969l-1.312,1.094l0.062,0.031
		l-0.491,0.442l-0.009-0.036l-0.437,0.438l-0.219,0.437l-0.656,0.875l-0.109,0.656l-1.203,2.406v7.437l-0.437,1.312v3.937
		l0.875,0.875l0.875,0.875l3.062,0.438l2.187-0.875l1.591-0.318l0.774,0.129l2.01,2.814l0.875,2.187h-3.5l-2.187,0.875l-0.437,2.187
		l3.5,0.438l0.437,2.187l1.75,2.187l1.312,0.239v0.199l3.5,0.438l-1.75,3.5v3.5l3.5,1.75l5.25,5.25l-2.187,0.438l-0.7,0.525
		l-0.175-0.087l-0.875,0.875l0.437,3.5l-2.187,2.625l-3.062,0.437l-0.437,0.875l1.75,0.437l-0.437,1.312l-1.75,0.875l-0.437-2.187
		h-2.187l-0.437-1.312l-2.187-0.437l-1.312,0.875l-0.437,1.75h1.312l2.187,0.437l1.969,1.969l0.219,0.365v2.479l-0.875,2.625
		l-1.312,0.875v0.875l-1.75,0.437l-0.437,1.312h-0.875l-0.437,1.312l0.077-0.051l-0.223,0.781l-0.61,1.22l-1.432,0.895l-1.312,0.656
		v0.164l-0.437,0.273l-2.625,1.312l-0.437,3.062l-0.875,3.062l-2.187,2.187l-1.312,0.437l0.437,3.937l1.312,1.75l3.5,1.312
		l3.937,1.312l0.437-0.875l1.875,0.75l0.75,1.875l0.394,0.263l0.044,0.175l0.312,0.063l0.562,0.375l0.583-0.146l0.729,0.146h1.312
		l0.875,0.438l0.719,1.797l-1.302,0.391H90.69l-2.625,0.875l-0.437,1.75l1.75,0.437l0.875-1.75h1.75l1.312-0.875h2.187v0.875
		l-2.187,0.437l-0.875,2.187h-0.875l0.328,0.109l-2.461,0.492l-0.492-0.164l-0.875,0.437v0.875l0.7,0.875l0.175,0.437l0.486,0.389
		l0.389,0.486l2.187,2.187l-2.625-0.875h-3.5l-1.75,1.312l-0.437,2.625l2.625,0.875l1.312,1.312l3.062,0.875l3.062-0.875
		l3.062,0.437l0.875,1.75l0.437,1.75h-3.5l0.875,1.75l2.187,2.187l1.312,2.187l2.625,1.75h3.062l4.375,0.437v1.312l0.875,0.875
		l5.044,1.513l1.546,1.932l1.312,0.239v0.199l3.5,0.438l-0.319,0.638l-1.021-0.146v0.875l0.618,0.077l-1.028,2.056v0.209
		l-0.465-0.155l-1.352-0.398l-1.273-0.477l-0.13,0.065l-1.377-0.405l0.194-0.097l-3.5-0.875l-1.75,0.437h-4.375l-3.5-0.875
		l-4.375-2.187h4.375l8.312,1.312h3.937v-0.437l-0.612-0.175l-0.263-0.263l-1.865-0.345l-0.322-0.092l-1.749-0.292l-7.875-1.458
		l-5.687-1.75l3.937-0.875v-0.437l-2.187-0.875l-3.062-0.875l-0.787,0.105l-0.525-0.105l-5.25,0.875l-0.437,1.312l3.062,0.437v0.437
		l-4.375-0.875v-3.062l-0.875-0.438l-2.187-0.437l0.437-2.187l-0.875-0.437l-0.875,0.438v-0.438h-0.875l-2.625,0.875l-0.875,0.875
		l1.481,0.135l-0.606,0.303l-2.187,0.875l-4.375,0.875l-0.5,0.25l-0.812,0.188l-0.437,0.437h0l0,0l-0.875,0.875v0.875l-2.187-0.875
		l-1.75,0.875l0.875,1.312l2.625,0.875l3.062,1.312l3.062,0.875l3.5,2.187l3.937,1.75l0.875,3.062l0.875,0.875v-0.175l1.312,1.05
		l4.375,0.875l0.875,1.312l3.5,1.75l0.437,0.875l2.625,1.75l3.062,0.437l4.375,0.875l7.437,0.437l5.25,1.312l0.875-1.75
		l-0.437-2.187l5.25,0.875h1.167l2.282,0.311l-0.359,0.072l-0.7,0.525l-0.175-0.087l-0.875,0.875l0.359,2.869l-3.448-0.627
		l0.875,0.875l2.325,0.775l-1.861,2.233l-3.062,0.437l-0.437,0.875l1.75,0.438l-0.437,1.312l-1.75,0.875l-0.437-2.187h-2.187
		l-0.437-1.312l-0.027-0.005v-0.378l-1.75-1.312l-1.75-0.875v-1.75l-5.25-0.875l-0.437,0.437v2.187l1.312,1.75l3.5,1.312h0.889
		l-0.424,1.695h1.312l2.187,0.437l1.969,1.969l0.219,0.365V482l-0.875,2.625l-1.312,0.875v0.875l-1.75,0.437l-0.437,1.312h-0.875
		l-0.437,1.312l0.077-0.051l-0.223,0.781l-0.61,1.22l-1.432,0.895l-1.312,0.656v0.164l-0.437,0.273l-2.625,1.312l-0.437,3.062
		l-0.875,3.062l-2.187,2.187l-1.312,0.437l0.437,3.937l1.312,1.75l3.5,1.312l3.937,1.312l0.437-0.875l1.875,0.75l0.75,1.875
		l0.394,0.263l0.044,0.175l0.312,0.063l0.562,0.375l0.583-0.146l0.729,0.146h1.312l0.875,0.437l0.719,1.797l-1.302,0.391h-0.292
		l-2.625,0.875l-0.437,1.75l1.75,0.437l0.875-1.75h1.75l1.312-0.875h2.187v0.875l-2.187,0.438l-0.875,2.187h-0.875l0.328,0.109
		l-2.461,0.492l-0.492-0.164l-0.875,0.437v0.875l0.7,0.875l0.175,0.438l0.486,0.389l0.389,0.486l2.187,2.187l-2.625-0.875h-3.5
		l-1.75,1.312l-0.437,2.625l2.625,0.875l1.312,1.312l3.062,0.875l3.062-0.875l3.062,0.437l0.875,1.75l0.437,1.75h-3.5l0.875,1.75
		l2.187,2.187l1.312,2.187l2.625,1.75h3.062l4.375,0.438v1.312l0.875,0.875l8.75,2.625l3.937,1.75l4.812,1.75l2.187,0.875
		l0.492,0.082l2.133,0.762v0.031l2.187,0.875l1.481,0.404l3.769,1.346l7,3.5l-1.312,0.875l0.437,2.187l2.187-0.438l1.312,0.875
		l3.062,4.812l0.014-0.027l0.861,1.34l-3.062-1.312l-4.375-0.875v0.875l1.312,1.312l3.937,2.187l3.5,0.875l2.625,1.312l5.687,2.187
		l2.187,1.312l2.187,0.875l0.437,0.875l-2.187-0.437l1.75,1.75h2.625v0.875l2.625,1.312l1.312,4.375l-1.75,0.437l2.187,1.75
		l2.187,2.625l4.812,3.5l8.75,4.812l4.812,3.062l9.624,5.687l5.687,3.5l4.812,3.5h0.146l9.916,7l4.812,3.5l1.75,0.438v-1.312
		l-4.375-3.937l-6.125-4.812l0,0l-2.625-2.625l-1.312-2.187l-3.062-1.312l-3.675-2.45l-1.575-2.362l-1.312-0.437l-0.438-0.875
		h-0.087l-0.787-1.312h1.75l2.187,1.312l3.937,2.625l4.812,2.625l2.187,1.75l7,5.25l2.187,0.438v-0.875l-0.292-0.292l-0.146-0.583
		l-8.312-6.125l-0.673-0.404l-0.639-0.471l-1.969-1.094l-1.094-0.656l-2.625-2.187l-1.167-0.875l-1.458-1.312l-2.625-1.75
		l-3.062-3.5l4.375,1.75l0.875,0.875h0l0.437,0.438l0.066-0.131l1.684,1.444l1.312,0.292v0.146l2.625,0.438l2.187,0.875l2.625,0.438
		v-1.312l0.875-1.75l3.937,1.575l1.312,0.787l3.5,2.45l2.187,1.75h2.625l0.438-1.312l-0.094-0.75l0.094-0.563l-0.202-0.303
		l-0.126-1.01h0.328v0.875l1.312,2.625h-0.875v2.187v1.312l0.41,0.328l0.027,0.109l0.292,0.146l1.458,1.167l1.276,1.094l0.911,1.094
		l0.684,0.273l0.191,0.164l0.875,1.75l-1.312-0.438l-3.5-2.625l-3.062-1.312l-0.312-0.125l-1-0.75l-0.389,0.194l-0.486-0.194v0.438
		l3.937,3.5l3.937,2.625l0,0l1.312,0.875l3.5,2.625l2.187,2.187l1.75,0.437l0.437,1.75l1.312,0.437l4.375,3.062l2.625,3.062
		l5.25,4.375l2.187,2.187l8.75,6.562l5.687,4.375l4.375,2.625l0.437-0.875l-2.187-2.187l0,0l-0.437-0.437l-1.203-0.984l-3.609-3.128
		l-1.75-1.575l-0.417-0.083l-0.914-0.773l0.018-0.018l-2.625-2.187l-1.312-2.187h1.312l3.937,1.75l1.75,0.875v-1.312l-0.875-1.312
		l-3.5-2.625v-2.187l1.75-0.438l2.625,2.187l1.312,1.312l4.375,2.187l-0.875-1.312l-1.75-0.875v-0.875l-2.297-1.969l-2.953-3.281
		l-2.625-1.75l-2.625-0.875l0.437,1.312l1.75,0.875l0.437,2.187l-2.625,0.437l-1.875-0.833l0.125-0.042l-2.187-0.875l-3.062-2.187
		l-0.438-1.75l-0.875-1.75v-0.437l-0.875-1.312l-3.5-2.625l-2.187-2.187l1.75,0.438v0.875l2.625,1.75l0,0l2.625,1.75l0.146,0.073
		l2.917,2.552l3.5,1.75l0.875-0.875l-1.312-1.312l-0.875-2.187l-1.312-1.75l-3.062,0.438l-0.875-0.875l-2.187-0.438v-0.875
		l-4.812-3.937v-2.625l1.312-0.437l-0.437-1.75l-0.243-0.292l-0.194-0.583l-0.955-0.795l-0.795-0.955h-0.35l-0.525-0.437
		l-0.437,0.437l-0.875,2.625l-3.5-1.312l-1.75-2.187l-1.75-4.375l-1.312-0.438l-1.312,1.312h-0.437l-2.625-2.187l-1.125-0.625
		l-1.5-1.125l-1.167-1.167l-0.583-1.458h0.875l1.75-2.187l-0.437-2.187l2.187,0.438l-0.875,1.312l0.875,1.75l4.375,1.312
		l0.437-1.312l-1.75-2.187l-4.375-2.187l0.438-1.75l-0.438-0.438v-0.437h-3.062l-3.937-2.187l-3.5-4.375l-2.187-1.75l-0.875-0.632
		l-0.875-0.68l-0.322-0.184l-5.802-4.191l-6.125-3.5l-1.75-1.75l3.062,1.75l5.687,3.062l3.062,1.969l2.187,1.531l5.687,3.062
		l0.312-0.063l1,0.5l2.187,1.312l2.625,1.75l2.187,2.187l2.187,0.875l8.312,4.812l4.375,3.062l2.187,0.875v-0.875l-3.062-2.625
		l-0.7-0.28l-4.987-3.657l-4.375-3.062l-5.762-3.073l-2.988-2.614l-1.266-0.921l-0.921-0.829l-0.321-0.204l-0.117-0.233
		l-1.531-0.835l-0.656-0.477l-6.125-4.375l0.437-0.438l2.187,1.312l4.812,2.625l2.625,1.75l2.187,2.187l2.625,2.187l4.375,2.625
		l1.75-1.312l-0.437-1.312l-2.625-1.75l-3.062-3.5l-3.5-1.75l-0.875-1.75l-3.5-2.625h2.625l3.5,2.187h1.312l1.75,0.438l2.188,1.313
		l1.312,0.875l0.024-0.073l0.851,0.51l5.25,1.75l0,0l7,3.5l2.187,0.875v1.75h-2.187v1.312l3.937,2.187l0.525,0.175l2.975,1.575
		l3.5,1.75l3.062,1.312l3.937,1.75l6.464,1.724l2.942,1.558l5.118,2.756l4.6,2.588l2.968,1.875l6.562,4.375l2.406,1.75l3.208,1.75
		l0.729,0.437l0.273,0.109l0.602,0.328l4.375,3.062l-0.875,1.312v1.75l2.625,0.875l2.187-0.437v1.75l1.312,1.75l0.06-0.181
		l1.69,1.931l0.875,1.312l1.313,2.188l0.236,0.135l0.202,0.303l4.266,2.297l2.734,1.641l1.021,0.34l-0.146,0.097l3.062,0.875
		l2.625,1.75l3.062,0.875l2.625,2.187l2.625,0.875v2.187l1.75,1.75l1.357,0.864l-0.045,0.011l3.5,2.187l5.25,1.75l2.187,2.187
		l3.5,1.75l3.5,4.375h0.875l0.438,1.312l4.812,3.062l0.875,3.062l3.062,3.062v-0.219l0.269,0.236l0.168,0.421l0.505,0.168
		l0.808,0.707l1.75,0.875l1.243,0.276l2.694,1.036l7.437,3.5l4.375,3.062l1.312,1.203l5.25,4.922l0.875,2.187l1.312,1.687v0.062
		l0.583,0.729l0.292,0.583l0.463,0.36l0.412,0.515l3.938,2.844l3.499,2.624l2.362,1.969l2.888,2.625l1.166,1.021l4.958,4.667l0,0
		l0.875,0.875l1.925,1.225l0.7,0.525l3.062,2.625l4.375,3.062l4.375,4.375l0.875,0.681v0.194l3.062,2.187l0.437,2.187l2.187,0.875
		l1.75,0.875l5.6,3.15l4.462,2.975l7.84,3.36l0.035,0.14l1.312,0.438l1.312,1.312l3.182,0.398l1.193,0.477l3.5,1.75l2.625,1.75
		l0.07-0.21l0.367,0.21l-0.063-0.25l0.063,0.031v0.219l1.312,2.625l3.937,3.937l0.795,0.477l0.954,0.835l4.375,4.375l4.375,3.5
		l3.937,1.75l3.5,2.187l2.187,3.5l4.375,3.937h2.187l-0.438-0.875l-1.75-0.875v-0.875l-1.313-2.187l-3.062-4.375l-3.5-1.75
		l-2.187-2.187l-1.313-1.75l-0.034,0.067l-0.987-1.234l-0.292-0.583l-0.606-0.538l-0.269-0.337l-1.375-1.125l-1.687-1.5
		l-0.787-0.525l-0.963-0.788l-2.333-2.722l0.458-0.153l2.75,0.687l0.135-0.067l0.303,0.067l0.063-0.25l0.375-0.188l-0.146-0.729
		l0.146-0.583l-0.303-0.202l-0.135-0.673l-1.312-3.937l-2.187-1.75l-0.557-0.08l-1.193-0.795l2.187-1.75v-2.187h-3.062v0.875
		l-1.75-0.875l-1.312-1.312l-0.823-2.059l0.823-0.274l1.75-0.292l0.109-0.328l0.328-0.109l-0.125-0.5l0.125-0.375l-0.292-0.292
		l-0.146-0.583l-0.583-0.146l-0.729-0.729l-0.437-1.75h0.875l3.069,2.148l-0.007,0.039l1.312,0.875l0.875,0.437l0.875,0.438v0.875
		l1.313,1.75l2.625,0.875l-0.438-1.312l-0.51-0.583l-0.365-0.729l-1.01-0.841l-1.178-1.346l-0.438-0.438v-0.437l-0.937-0.625
		l-0.2-0.6l0.525-1.05l1.05-0.787v-2.187l-0.438-0.438l-1.312,0.438l-3.5-0.438v-2.625l-1.75-0.875l-0.875-2.187h-2.187l-1.312-1.75
		l-0.278-1.392l0.133-0.795h1.021l0.875,0.875l4.812,3.937l1.312,2.187l2.187,0.437l0.875-2.187l1.313-0.438l1.75-1.312l0.875-1.75
		l-0.188-0.063l0.188-0.375l-2.625-0.875l-0.875-0.875l-5.25,0.875l-3.062-2.042l1.75,0.292l1.312-0.875v-0.437v-3.937l1.75,0.437
		l1.75,1.312l0,0l2.45,2.041l1.706,1.895l1.531,1.75l0.122,0.088l0.315,0.35l0.026-0.106l5.661,4.043l1.75,0.875l-0.046-0.461
		l0.046,0.023l-0.394-3.937h0.831l2.625,2.187l0.125,0.063l1.692,1.385l0.589,1.178l0.219,0.875l0.292,0.292l0.583,1.458
		l2.625,0.875l4.375,3.5l5.25,5.25l1.75,2.625l1.75,0.437v-0.437v-1.312v-0.438l-3.062-3.937l-3.062-3.062l-3.937-4.375l-3.062-3.5
		l-3.937-3.5l-3.062-3.5l-5.25-4.812l-1.312-1.312l-3.062-3.5l-1.313-0.437v-0.438v-0.438l-3.5-3.5l-4.812-5.25l-0.875-2.187
		l-1.312-1.75l-0.875-3.062h-1.312l-0.437-1.75l-1.75-0.875l-0.437,1.312l-1.312-0.875l-0.792-1.979l1.667,0.667l1.75,0.875v-1.312
		l-2.625-1.75l-1.75-0.437l0.398,1.591l-0.835-0.278l-1.312-2.187h-1.75v-0.437v-0.438l-1.695-1.695l0.383-2.68l-0.061-0.009
		l0.061-0.429l-2.858-0.408l0.233-0.467h2.187v-0.438v-0.438v-0.437l-2.423-0.404l0.236-0.471l-0.073-0.292l0.073-0.146l-0.438-1.75
		l-2.187-0.437l-0.354-2.125l1.667,1.25l4.812,3.937l4.375,3.937l3.5,3.062l1.75,2.187l1.75,0.875v0.438v0.437l3.661,4.881
		l-1.474,0.368l-0.875,2.187h0.175l-0.175,0.438h1.75l1.211-0.808l-0.337,1.683l0.082,0.027l-0.082,0.41l1.313,0.438l0.875-2.625
		l2.187,0.875l0.875,1.75l2.187,0.438l0.875,0.875l2.625,0.875l-0.119-0.477l0.119,0.04l-0.437-1.75l-1.313-0.438l-0.313-1.25
		l1.625,0.812l0.164-0.109l0.273,0.109l1.056-0.845l2.444,0.407l1.75,1.312l2.187,2.187l0.875,2.187l3.5,1.312l1.75,0.438
		l-0.159-0.477l0.159,0.04l-0.438-1.312l-2.187-1.75l-2.187-2.625l-1.312-1.969l0.438,0.219l1.75,0.437l-0.159-0.477l0.159,0.04
		l-0.438-1.312l-1.75-0.875l-0.278-0.835l1.591,0.398l2.625,2.187l0.438,1.312h1.312l-0.146-0.438h0.146l-0.438-1.312l-2.187-3.937
		v-2.625l1.75,0.437l4.375,3.5l1.312,3.062l0.875,0.438l5.687,4.375l2.625,0.437l-0.202-0.471l0.202,0.034l-1.074-2.506l1.511,0.756
		l2.625,3.062l3.937,3.937l0.437,0.437l0.5,0.125l1.25,0.75l2.187,1.75l2.356,2.692l0.707,2.12l2.625,1.312l3.062,0.437l4.375,2.187
		l2.187-0.438v-1.312l-2.187-2.625l-0.219-0.219l-0.656-1.094l-2.187-2.187L571,697.306l-0.808-0.942l-0.115-0.069l-0.322-0.368
		l-0.875-1.167v-0.146l-0.778-0.972l1.215,0.972l5.25,5.25l3.5,3.062l3.5,3.5l2.625,1.75l5.687,4.375l2.187,2.187l3.937,3.062
		l1.75,0.438l1.75,0.875l-0.438-1.75l-0.875-2.187l-1.312,0.438v0.875l-0.875-0.438l-0.438-1.75l-3.062-3.062l-2.187-3.5
		l-3.062-2.625l-3.062-3.5l-4.375-4.375l-0.875-1.75l3.062,3.062l3.5,3.062l1.75,1.75l2.187,2.187l0.98,0.77l-0.105,0.105
		l5.25,3.937l1.75,0.875l-1.312-1.75l-0.75-0.656l-0.562-0.656l-1.313-0.984l-0.875-0.766l-2.187-2.187v0l0,0l-3.062-3.062
		l-4.375-5.687l-2.187-2.187l-3.062-1.75l-3.062-3.5l-0.438-3.062l-3.937-3.937l-2.406-2.625l-1.531-1.75l-2.1-2.275l-1.837-2.1
		l-1.312-1.312l0,0l-2.406-2.625l-1.531-1.75l-2.362-2.625l-0.7-0.875l-0.875-0.875l-0.875-2.187l1.313-0.875l-0.438-2.187h-0.875
		l-0.438,2.187l-1.75-0.437l-3.937-4.812l-2.187-0.875v-0.875l-15.749-15.749l-3.527-3.848v-0.035v-1.312v-0.438l-3.062-3.937
		l-3.062-3.062l-3.937-4.375l-3.035-3.469v-0.523l-1.312-0.875v0.225l-2.652-2.357l-3.062-3.5l-5.25-4.812l-1.312-1.312l-3.062-3.5
		l-1.312-0.437v-0.438v-0.438l-3.5-3.5l-4.812-5.25l-0.875-2.187l-1.312-1.75l-0.788-2.76l1.687,2.7l-0.024,0.06h0.093l0.062,0.051
		l-0.154,0.386h0.618l2.034,1.695l1.75,1.75l0.438,0.437l0.014-0.042l0.356,0.312l0.067,0.168l1.312,1.312l0.071-0.212l1.242,1.087
		l3.937,3.937l0.875,0.673v0.202l4.812,3.5l1.458,2.187h-1.021l-1.312-0.875l-0.875-0.438l-2.187-1.312l-0.088,0.175l-0.35-0.175
		l0.175,0.525l-0.175,0.35l0.412,0.36l0.026,0.077l0.963,0.788l2.1,1.837l2.187,2.187l1.75,1.313l0.437,0.37v0.067l4.594,3.828
		l1.093,0.984l2.922,2.391l0.141,0.234l1.75,1.312l3.062,3.062l3.937,4.375l1.75,0.875v0.875l-2.187-1.75v0.312l-0.438-0.312
		l0.438,1.312l1.75,2.625l2.625,2.187l0.437-0.875l-0.525-0.875l-0.204-1.021l0.292,0.146l4.812,4.812l1.75,1.75l3.062,3.5
		l0.875,0.438l2.187,2.187l0.129,0.051l2.059,2.573l-3.5-2.625l-1.75-2.187l-1.75-0.438v0.875l0.583,0.583l0.292,0.729l2.187,2.187
		l3.937,5.25l1.75,0.438v-0.875l-0.437-0.875l0,0l-0.788-2.362l1.225,0.612l1.75,2.187l5.25,5.25l3.062,3.5l2.625,2.187l2.187,2.187
		l1.75,2.625l0.875,0.438l1.591,1.273l1.909,2.227l3.937,4.812l7,7l2.625,0.875l-1.312-2.625l-1.969-1.125l-2.844-3.25l-3.5-4.375
		l-3.937-4.375l0.438-3.062h-1.313l-1.641-0.41l-0.547-0.684l-1.312-1.969l1.313-0.437l-2.187-2.625l-2.625-3.937l-2.625-2.187
		l-1.75-3.062l-1.75-2.187l-3.937-2.187l-0.438-1.75l-1.75-2.187l-0.875-0.875l-1.312-1.312l-0.875-0.875l-6.562-5.25l0.438-2.625
		l-2.187-1.75l-1.167,0.292l-1.264-0.632l-2.382-2.722l-2.187-3.5l-2.407-2.626l-1.968-2.187l-0.109-0.08l-0.328-0.358l-4.733-3.381
		l-0.107-0.095v-1.72l-2.187-0.438v0.213l-1.285-1.142l-0.729-0.437l-1.458-1.312l-0.615-0.82h1.025l-0.437-1.312l-2.187-2.187
		l-1.312-0.437v-0.875l-1.312-0.437v0.758l-5.204-4.258h1.267l0.437-0.875l-1.75-0.437v1.275l-0.957-0.783l-1.665-1.409l0.025-0.013
		l-1.312-1.094l-1.75-1.531l-2-1.25l0.25-0.063l-0.528-0.308l1.813,0.363l0.875,0.875l2.625,0.875l-0.119-0.477l0.119,0.04
		l-0.437-1.75l-1.312-0.438l-0.313-1.25l1.625,0.812l0.164-0.109l0.273,0.109l1.056-0.845l2.444,0.407l1.75,1.312l2.187,2.187
		l0.875,2.187l3.5,1.312l1.75,0.438l-0.159-0.477l0.159,0.04l-0.438-1.312l-2.187-1.75l-2.187-2.625l-1.312-1.969l0.437,0.219
		l1.75,0.437l-0.159-0.477l0.159,0.04l-0.437-1.312l-1.75-0.875l-0.278-0.835l1.591,0.398l2.625,2.187l0.437,1.312h1.312
		l-0.146-0.438h0.146l-0.437-1.312l-2.187-3.937v-2.625l1.75,0.437l4.375,3.5l1.313,3.062l0.875,0.438l5.687,4.375l2.625,0.437
		l-0.202-0.471l0.202,0.034l-1.074-2.506l1.511,0.756l2.625,3.062l3.937,3.937l0.437,0.438l0.5,0.125l1.25,0.75l2.187,1.75
		l2.356,2.692l0.707,2.12l2.625,1.312l3.062,0.437l4.375,2.187l2.187-0.438v-1.312l-2.187-2.625l-0.219-0.219l-0.656-1.094
		l-2.187-2.187l-0.942-0.808l-0.808-0.942l-0.115-0.069l-0.322-0.368l-0.875-1.167v-0.146l-0.778-0.972l1.215,0.972l5.25,5.25
		l3.5,3.062l3.5,3.5l2.625,1.75l5.687,4.375l2.187,2.187l3.937,3.062l1.75,0.438l1.75,0.875l-0.438-1.75l-0.875-2.187l-1.312,0.438
		v0.875l-0.875-0.438l-0.438-1.75l-3.062-3.062l-2.187-3.5l-3.062-2.625l-3.062-3.5l-4.375-4.375l-0.875-1.75l3.062,3.062l3.5,3.062
		l1.75,1.75l2.187,2.187l0.98,0.77l-0.105,0.105l5.25,3.937l1.75,0.875l-1.312-1.75l-0.75-0.656l-0.563-0.656l-1.313-0.984
		l-0.875-0.766l-2.187-2.187h0l0,0l-3.062-3.062l-4.375-5.687l-2.187-2.187l-3.062-1.75l-3.062-3.5l-0.438-3.062l-3.937-3.937
		l-2.406-2.625l-1.531-1.75l-0.492-0.533l2.707,1.353l8.663,5.119l7.496,4.551v0.009l0.031,0.01l3.496,2.122l2.187,2.187
		l2.625,2.187l5.25,3.062l9.625,5.687l7.437,4.375l6.125,4.375l0.875-0.875l-6.125-4.375l-7.437-4.812l-2.187-2.187l3.5,1.75
		l17.937,10.937l4.375,3.062l1.312,0.875l0,0l0,0l10.499,7l4.375,2.625l2.625,0.875v-1.312l-1.75-1.312l-2.625-2.625l-1.264-0.875
		l-0.486-0.437l-2.231-1.444l-1.706-1.181l-3.937-2.625l-4.375-2.625l0,0l-2.187-1.312l-6.562-4.375l-6.125-4.375l-1.75-2.187
		l3.937,2.187l7.875,4.812l0.875,0.5l1.313,0.813l7.437,4.375l7,4.375l5.687,3.937h2.187l3.937,2.625l3.5,0.437l3.5,1.75l1.75,2.625
		l6.125,4.375l1.313,0.875l4.375,3.062l1.312,0.437l4.375,2.187h4.375l2.187,0.437l-0.437-1.312l-1.75-0.875l-3.5-2.187l-7.5-4.125
		l-0.375-0.25l-2.187-2.187l-0.729-0.583l-1.021-1.167l-1.859-0.984l-2.953-1.641l-0.394-0.131l-2.231-1.181l-1.312-2.187
		l3.062,0.437v-0.875l-1.313-1.312h-2.625l-1.75-1.312l-5.687-3.062l-5.687-3.5l-2.187-2.625l-4.375-3.062l-2.625-3.062l2.887,0.962
		l2.8,2.1l4.812,3.062l2.187,1.75l5.25,3.5l4.375,0.875l2.625,3.062l2.625,1.312l7,2.625l3.937,3.062l7.875,5.687l3.062,1.312h3.062
		v-1.312l-3.062-2.187l-0.923-0.632l-2.139-1.556l-0.324-0.13l-4.926-3.37l-4.375-3.062l-1.313-2.187l1.313,0.437l2.625,1.75l0,0
		l3.937,2.625l0.484,0.138l2.579,1.612l0,0l4.375,3.062l2.028,1.313l1.909,1.312l0.313,0.125l3.187,2.062l6.125,3.937l6.562,3.5
		l2.028,0.676l0.159,0.199l0.044-0.131l0.394,0.131v-1.312l5.687,2.187l2.625-0.438l3.937,1.75l4.812-0.437v-0.875l10.062,3.062
		l3.5,0.438l10.5,2.625l3.062,0.438v-0.438l-5.25-2.187l-1.75-2.187l1.75,0.875l5.687,1.312l4.375,0.438l-1.312-1.313l-11.374-5.25
		l-6.125-3.5l-6.562-3.937l-4.375-3.062h1.312l3.5,1.75l3.937,1.312l2.625,1.312l4.812,0.875l7,1.75v-0.875l-2.187-1.312
		l-9.187-4.375l-0.875-1.312l1.75,0.875l11.374,5.25l6.562,2.625l3.062,0.438l-0.875-1.75L736.872,633.805z M663.129,503.928h0.219
		v0.438l-0.375-0.125l0,0L663.129,503.928z M737.309,508.686v0.875l-0.875-0.875H737.309z M711.06,489.874l3.5,3.062l0.875,1.75
		h-0.875l-3.5-3.062l-0.875-1.75H711.06z M692.686,465.813l0.875,2.187l-0.219,0.219l-0.328,0.109l-2.953-2.953l-0.75-1.25
		l-0.125-0.5L692.686,465.813z M675.625,480.687l-0.875,0.438l-0.438-1.312L675.625,480.687z M671.25,483.75l2.187,1.312l5.25,3.937
		l0.875,4.375l-2.187-0.875l-2.187-2.187l-4.812-4.375l-0.438-2.187H671.25z M660.75,476.75h1.312l1.375,1.375l-0.063,0.375
		l1.75,0.437l1.029-0.772l0.721-0.103l1.313,1.312L667.75,482l-1.312,0.875l-0.097,0.194l-0.778-1.944l-2.625-0.438l-2.187-2.187
		V476.75z M711.471,409.871v0.875l-0.875-0.875H711.471z M685.222,391.059l3.5,3.062l0.875,1.75h-0.875l-3.5-3.062l-0.875-1.75
		H685.222z M666.848,366.998l0.875,2.187l-0.219,0.219l-0.328,0.109l-2.953-2.953l-0.75-1.25l-0.125-0.5L666.848,366.998z
		 M649.786,381.872l-0.875,0.437l-0.437-1.312L649.786,381.872z M645.411,384.934l2.187,1.312l5.25,3.937l0.875,4.375l-2.187-0.875
		l-2.187-2.187l-4.812-4.375l-0.437-2.187H645.411z M634.912,377.935h1.313l1.375,1.375l-0.063,0.375l1.75,0.437l1.029-0.772
		l0.721-0.103l1.312,1.312l-0.438,2.625l-1.312,0.875l-0.097,0.194l-0.778-1.944l-2.625-0.437l-2.187-2.187V377.935z
		 M424.485,129.01v1.312l-0.437-1.312H424.485z M360.176,93.137v-0.437l0.292,0.146L360.176,93.137z M363.238,94.886l0.063-0.125
		l0.375,0.125l-0.292,0.146L363.238,94.886z M365.207,96.418l-0.656-0.219l-0.875-0.875l1.312,0.875l0.437,0.146L365.207,96.418z
		 M369.144,99.042l-1.094-0.656l-0.365-0.146l-0.51-0.292l-1.312-0.525v-0.787h0.438l0.82,0.273l0.492,0.352v0.25l1.976,1.383
		L369.144,99.042z M372.863,101.886l-0.437-0.875h0l0.729,0.729L372.863,101.886z M83.32,446.383l-0.942,0.236l0.437-1.75
		l1.312,0.438L83.32,446.383z M92.439,447.931v-0.438l1.75-0.875v1.312H92.439z M94.189,462.368v-0.875l1.75,0.438L94.189,462.368z
		 M284.52,627.68l0.875,1.312l0.292-0.292l0.194,0.097l-0.049,0.194l1.75,0.875l4.375,3.062l0.146-0.292l3.791,3.791l-0.525,1.05
		l-0.787,0.262l-3.5-2.625l-1.823-0.729l-0.062-0.045l0.135-0.538l-3.937-3.062l-3.062-3.5L284.52,627.68z M274.457,619.805
		l0.109-0.219l0.328,0.656l0.438,1.312l2.625,0.437v1.312l0.375,0.188l0.063,0.25l2.983,1.989l-0.212,0.636h-0.583l-1.312-1.312
		l-0.345-0.069l-0.967-0.806l-3.5-2.625l-0.875-1.75H274.457z M271.833,618.493v0.875l-0.875-0.875H271.833z M254.334,590.932
		l2.187,0.438l-0.146-0.438h0.146l0.656,0.656l0.219,0.656l-0.875,0.438v1.312l3.5-0.438l-0.437,0.875l0.875,0.875l0.437,2.625
		l-0.875-0.438l-0.168,0.336l-0.269-0.161v-0.612l-2.187-1.312l-2.187-0.875l0,0h0h0l-0.875-1.312V590.932z M502.383,706.426
		l0.656,1.312h-1.094l-0.656-1.312H502.383z M529.07,670.99l1.312,1.312l0.636,1.591l-2.386-1.591l-0.656-1.312H529.07z
		 M509.356,602.416l-0.41-0.547l-0.1-0.149l0.51,0.204V602.416z M486.607,556.176v0.25l-0.437-0.438h0.273L486.607,556.176z
		 M485.41,555.274l-0.553,0.276l-2.625-1.75l-0.033-0.098l2.478,0.944L485.41,555.274z M480.92,559.488v0.438h-0.875l-0.219-0.438
		H480.92z M476.545,553.582v0.306l-0.583-0.233l-0.948-0.948l-0.073-0.219h0.729L476.545,553.582z M512.445,654.991v0.25
		l-0.437-0.438h0.273L512.445,654.991z M508.508,651.741l2.74,2.349l-0.553,0.276l-2.625-1.75l-0.292-0.875H508.508z
		 M501.509,651.304l0.875,1.094v0.306l-0.583-0.233l-0.948-0.948l-0.003-0.01l0.179-0.209H501.509z M506.758,658.741h-0.875
		l-0.219-0.438h1.094V658.741z M210.148,583.495l-0.262-0.787l2.45,1.225l0.875,1.312l-0.875-0.097v-0.34L210.148,583.495z
		 M269.18,76.512h1.75l1.312,0.875l-1.75,0.437L269.18,76.512z M273.118,77.825h1.312l0.437,0.437h-1.312l-0.073,0.109
		L273.118,77.825z M463.858,560.8l0.292,0.146l-1.167,0.292l-0.239-0.716L463.858,560.8z M630.127,463.626v-0.875l0.437,0.437
		l0.691,0.115l1.497,1.197l-0.875,0.438L630.127,463.626z M646.724,487.742l-0.875-1.75l1.313,0.438l3.062,1.312l1.75,2.187
		l0.027-0.055l0.41,0.492l0.875,1.75l-0.875-0.437l-0.25,0.125l-0.188-0.125l-0.437-0.438l-0.583-0.292l-0.292-0.583
		L646.724,487.742z M612.601,460.18L612.601,460.18l-1.312-1.75l-0.437-1.75h1.75h0.875v0.875v1.75l0.424,0.371l0.013,0.066
		l2.187,2.187l1.75,0.875l2.187,1.75l1.215,0.486l0.097,0.389l0.656,0.109l0.219,0.182v0.583l1.312,0.875l0.438,1.75l-1.75-0.875
		l-3.5-3.062l-2.187-0.875v-0.437l-2.625-2.625l-1.094-0.656L612.601,460.18z M591.164,440.056l1.75,1.75l0.044,0.131l-0.919,0.306
		l1.312,0.875l-0.702,0.234l-5.423-4.171l-4.812-3.937l-1.246-1.246l0.398-0.996l3.5,1.75l3.701,2.908L591.164,440.056z
		 M580.692,432.565l-1.116-0.159l-0.515-0.515l0.292-0.146l-1.686-1.686l0.401,0.1v0.219l2.187,1.312l0.729,0.729L580.692,432.565z
		 M641.474,483.804l-1.75-1.312l-4.812-3.5l-2.887-2.625l-2.8-3.5l-2.625-1.75l-0.437-1.75l1.73-0.433l0.02,0.012v2.171l2.187,0.437
		l0.438,1.75l1.75,0.875l1.75,1.75l1.312,0.438l5.25,4.375l0.438,0.875l0.875,0.437l1.75,2.187L641.474,483.804z M127.547,269.768
		l1.641-0.328l1.75,1.312l0.547,0.219l0.328,0.219l0.437,0.109l0.437,0.328l0.437,2.187h-3.062l-1.75-0.875l-0.875-3.062
		L127.547,269.768z M658.098,494.304v0.875l-0.875-0.875H658.098z M603.878,373.943l-1.313-1.312l-0.438-1.75h0.875l1.312,1.312
		l0.438,1.75H603.878z M309.428,92.262h-0.292l-1.021-0.437h-0.875l-0.437-0.219v-0.219l-2.187-0.875v-0.875l0.875,0.437h0
		l1.75,0.875l2.187,0.437V92.262z M305.929,87.449l-2.625-0.875l-0.073,0.219l-0.365-0.219v-0.437l-0.219-0.219l-0.219-0.656
		l3.937,1.312L305.929,87.449z M302.866,89.199v0.312l-0.826-0.118l0.389-0.194l-2.187-0.875h1.312L302.866,89.199z M265.931,73.388
		l-3.75-1.25l0.437-1.312h2.187l2.187,0.875l0.632,1.264L265.931,73.388z M263.931,75.2l1.693,0.226l-0.162,0.649h-0.219h-0.437
		v-0.437l-4.375-1.312l-4.072-1.11l0.251,0.031l4.122,0.97L263.931,75.2z M642.376,477.188l4.812,3.937l3.346,3.011l-5.123-4.269
		l-4.812-3.937l-0.127-0.127L642.376,477.188z M604.289,363.935l0.437,0.437l0.691,0.115l1.497,1.197l-0.875,0.438l-1.75-1.312
		V363.935z M577.165,272.065l1.312,1.312l0.438,1.75h-0.875l-1.312-1.312l-0.438-1.75H577.165z M297.179,79.575l6.125,2.187v-0.437
		l0.262,0.087l0.175,0.35l3.702,1.683l2.458,1.311l-0.035,0.069l4.156,2.078l-0.196,0.294l-0.46-0.184l-0.437,0.875l1.75,1.75v0.875
		h-1.312l-1.75-0.875l-3.5-0.875l-0.402-1.61l1.715,0.735l2.625-0.437v-0.875l-1.312-0.875l-3.062-1.312l-0.875-0.437l-0.656-0.219
		l-1.531-0.656l-1.75-0.437l0,0l0,0l-1.4-0.35l-1.225-0.525h-0.292l-2.333-0.875l-2.187-1.312H297.179z M270.055,69.95l10.937,3.5
		l0.125-0.25l0.312,0.104v0.146l1.75,0.875l4.375,2.187l1.514,0.337l-0.202,0.101l3.445,0.766l0.638,0.255l0.292,0.292h-0.438
		l-7.437-1.312v0.875l5.25,2.187l2.625,1.312h-1.312l-0.119,0.239l-0.318-0.141v-0.097l-2.187-1.312l-4.375-1.75l-0.438-1.75
		l-2.187-1.312h-2.625l0.875,0.875l2.187,0.875v0.875l-3.5-0.875l-0.622-0.138L274.43,75.2l-0.738-0.062l-2.324-0.813l-0.875-0.875
		l4.375,0.875l-0.875-1.312l-2.625-1.312l-5.687-2.187L270.055,69.95z M251.244,65.138l3.5,0.875l5.687,1.75l4.102,0.932
		l0.273,0.818l-2.625-0.437l-2.187-0.437l0.437,2.187h-1.312l-0.437-0.08v-0.358l-2.187-0.437l-0.438-1.75l-3.5-0.437l-2.187-1.312
		l-1.75-1.75L251.244,65.138z M247.744,71.263l-2.037,0.34l-8.987-1.214h0.087V69.95l-6.562-0.875l-3.937-0.437v-0.875l7.437,0.437
		v-0.273l2.187,0.273l8.75,1.75l3,1.125L247.744,71.263z M245.557,65.575l0.437,1.75h-4.375l-0.35-1.05l0.35-0.262l2.1-0.7
		L245.557,65.575z M224.995,63.388l3.062-1.312h5.25l8.312,1.312l-1.312,0.875l-0.875,2.187h-1.75l-1.75-0.437l0.437-1.75h-4.375
		l-0.437,0.437l-7-0.437L224.995,63.388z M140.125,108.011h1.75v0.875h-2.187L140.125,108.011z M126.153,217.326l-0.623-0.125
		l0.997-0.249L126.153,217.326z M123.965,215.685l0.668,1.337l-0.668-0.134V215.685z M123.5,269.878l0.437-0.875l0.437,0.875H123.5z
		 M110.376,300.501l1.75-1.312l0.437-1.75l0.875-0.437h0.875v1.75l-0.875,2.625l-1.75,1.312l-1.312-0.437V300.501z M104.251,301.376
		h0.875l0.437,1.75l0.875,0.437v-0.875l1.312-0.437l0.437,2.625l-2.187,1.75l-1.75-0.437l-1.312-3.062L104.251,301.376z
		 M108.189,443.119H105.4l-0.168-0.122l-0.105-0.315l-1.969-1.531l-1.969-1.969l4.511-0.82l0.766,0.766l3.062,0.437l2.187-0.875
		l1.591-0.318l0.057,0.01l-1.238,1.238l-0.292,0.583l-0.583-0.146v0.875l0.164,0.109l-0.164,0.328l2.625,1.75l1.149,0.383h-1.53
		l-2.681-0.383H108.189z M142.339,543.684h-1.75l-0.875-0.875v-0.437l-3.062-0.438h-2.625h-2.789l-0.168-0.122l-0.105-0.315
		l-1.969-1.531l-1.969-1.969l4.812-0.875l0.875-1.75h0.875l0.437,0.875l2.187,0.438l3.937-1.312l-0.437,1.312l-1.75,1.75
		l-0.292,0.583l-0.583-0.146v0.875l0.164,0.109l-0.164,0.328l2.625,1.75l2.625,0.875V543.684z M169.025,555.934h-0.875v-0.875h0.875
		V555.934z M171.65,556.809l-0.875-0.875h0.875V556.809z M186.962,573.433l-3.937-0.875l-0.101,0.101l-0.337-0.101l-0.875-1.75
		l3.5-0.875h1.312l1.75,1.75l0.109,0.547l-0.109,0.328l0.239,0.318l0.199,0.994L186.962,573.433z M197.024,577.807h-0.875
		l-0.437-1.312h1.312V577.807z M198.734,578.802l-0.835-0.557l-0.437-0.875h1.312h0.437l1.75,1.75L198.734,578.802z
		 M203.149,590.057l-0.875-0.875h0.875V590.057z M219.856,599.244l-0.591-0.31l0.508-0.127l-7.556-3.977l-3.818-2.148l-0.688-0.125
		l-3.25-1.625v-0.875h0l2.187-1.312v-1.75l-1.312-1.312l-0.729-0.292l-1.896-1.896l0.875-0.875v-2.187l1.75,0.437v0.438v1.312h2.187
		l-0.437,1.75v2.187l1.312,1.312l3.094,0.688l0.844,0.307v0.318h0.875l0.875,1.75l-1.312-0.437l-4.375-0.875l-0.437,1.75
		l2.187,1.312l2.625,1.312l3.5,2.187l4.812,3.062H219.856z M221.523,596.182v-0.438l-1.312-0.875l-0.438-1.75l-0.328-0.164
		l-0.109-0.273l-0.262,0.087l-0.175-0.087l-0.437,0.219l-0.875-0.219l-2.187-1.312l-0.547-0.82l0.109-0.055l2.187-0.438l1.167-0.875
		h0.583l0.437,1.75h0.875l2.625,1.312v2.187l-0.875,0.438l2.187,2.187l-2.1-0.35L221.523,596.182z M230.054,602.306l-0.219,0.438
		h-3.062l-3.062-1.75l-0.158-0.035l-0.28-0.84h0.875l1.312-1.75l3.937,1.312l0.437,1.75h0.437L230.054,602.306z M229.397,592.682
		v-0.875h1.75l0.125,0.25L229.397,592.682z M245.584,602.744l-1.487-1.487l1.05-0.7l-1.312-1.75l3.393,1.527l-0.33,0.661l0.437,1.75
		H245.584z M242.522,583.932l2.187,0.875l1.312,1.312v0.438l2.187,0.875l0.875,1.312l1.75,0.438l-0.437-1.75l1.312,0.438
		l0.438,1.312l0.505,0.202l0.37,1.111l-3.5-0.875l-1.75-0.875l-0.875-0.875l-2.625-1.312l-0.82-0.164l-0.492-0.273l-2.187-2.187
		H242.522z M237.272,594.432l0.051-0.154l0.386,0.154l3.937,2.187l1.094,0.875l0.219,0.438l-0.437,0.437l-2.187-1.312l-0.875-0.437
		l0,0l-3.85-1.925l-0.087-0.263l-1.312-0.437l-1.75-0.875L237.272,594.432z M349.704,625.055l-2.187-0.875v-0.875h2.187V625.055z
		 M488.822,660.053l-0.239-0.716l1.114,0.278l0.292,0.146L488.822,660.053z M517.695,681.49v-0.875l1.313-1.312h0.35l-0.35,1.75
		L517.695,681.49z M520.877,683.319l-1.432,0.358l-0.35-1.75h1.662v-0.438v-0.875l0.875,0.437L520.877,683.319z M521.195,666.178
		l-2.187,0.437v0.438l-0.438,2.625l-1.75-0.35v-1.4h-0.109l0.109-0.437l-1.05,0.35l-0.919-0.459l-1.253-1.044l-1.044-1.253
		l-0.547-1.094h-0.656l-0.919-0.612l-2.8-2.45l-0.636-1.591l1.074,0.716h0.656l1.094,0.875l0.875,1.75h1.313l0.437,1.312h0.875
		l1.312,1.312l3.062,0.437l0.438-0.437l3.937-0.875v0.875v0.437l0.236,0.067L521.195,666.178z M524.257,667.928l-1.312-0.437
		l-0.404-1.615l1.684,0.481l0.324,0.405L524.257,667.928z M480.947,580.432l0.875,1.312l0.307,0.492h-1.21l-0.437-1.75l-1.75-0.875
		l-0.438,1.313l-1.312-0.875l-0.792-1.979l1.667,0.667l1.75,0.875v-1.312l-2.625-1.75l-1.75-0.438l0.398,1.591l-0.835-0.278
		l-1.312-2.187h-1.75V574.8v-0.438l-1.695-1.695l0.383-2.68l-0.061-0.009l0.061-0.429l-2.858-0.408l0.233-0.467h2.187v-0.438V567.8
		v-0.437l-2.423-0.404l0.236-0.471l-0.073-0.292l0.073-0.146l-0.438-1.75l-2.187-0.437l-0.354-2.125l1.667,1.25l4.812,3.937
		l4.375,3.937l3.5,3.062l1.75,2.187l1.75,0.875v0.437v0.438l3.661,4.881l-1.235,0.309l-2.399-1.745L480.947,580.432z M488.6,585.444
		l0.194-0.582l2.187,0.875l0.774,1.547L488.6,585.444z M491.857,582.674v-0.875l1.312-1.312h0.35l-0.35,1.75L491.857,582.674z
		 M495.038,584.504l-1.432,0.358l-0.35-1.75h1.662v-0.437v-0.875l0.875,0.437L495.038,584.504z M495.356,567.363l-2.187,0.437v0.438
		l-0.438,2.625l-1.75-0.35v-1.4h-0.109l0.109-0.437l-1.05,0.35l-0.919-0.459l-1.253-1.044l-1.044-1.253l-0.547-1.094h-0.656
		l-0.919-0.612l-2.8-2.45l-0.636-1.591l1.074,0.716h0.656l1.094,0.875l0.875,1.75h1.312l0.437,1.312h0.875l1.312,1.313l3.062,0.437
		l0.438-0.437l3.937-0.875v0.875v0.437l0.236,0.067L495.356,567.363z M498.419,569.112l-1.312-0.437l-0.404-1.615l1.684,0.481
		l0.324,0.405L498.419,569.112z M502.794,573.487l-0.656-1.312h1.094l1.312,1.312l0.636,1.591L502.794,573.487z M603.878,606.681
		l-0.438-2.187l0.875-0.438v0.438l2.625,2.187l1.312,0.875l0.583,0.438l0.292,0.875L603.878,606.681z M618.488,542.168l-5.423-4.171
		l-4.812-3.937l-1.607-1.606l0.267-0.089l-0.948-0.593l-1.066-1.066l0.292-0.146l-3.5-3.5l-3.062-3.5l1.75-0.437l0.875,1.312
		l2.187,1.312l2.625,2.625l3.062,3.5l0.336,0.269l0.101,0.168l0.195,0.073l0.243,0.365l0.375,0.125l3.125,2.5l3.5,3.5l1.75,1.75
		l0.044,0.131l-0.919,0.306l1.312,0.875L618.488,542.168z M626.49,539.993l0.574,0.191l0.104,0.363L626.49,539.993z
		 M648.064,566.871l-3.5-3.062l-2.187-0.875v-0.437l-2.625-2.625l-1.094-0.656l-0.219-0.219v0l-1.312-1.75l-0.438-1.75h1.75h0.875
		v0.875v1.75l0.424,0.371l0.013,0.066l2.187,2.187l1.75,0.875l2.187,1.75l1.215,0.486l0.097,0.389l0.656,0.109l0.219,0.182v0.583
		l1.312,0.875l0.438,1.75L648.064,566.871z M667.313,582.62l-1.75-1.312l-4.812-3.5l-2.887-2.625l-2.8-3.5l-2.625-1.75l-0.437-1.75
		l1.75-0.437v2.187l2.187,0.437l0.437,1.75l1.75,0.875l1.75,1.75l1.313,0.437l5.25,4.375l0.437,0.875l0.875,0.437l1.75,2.187
		L667.313,582.62z M678.25,590.494l-0.25,0.125l-0.187-0.125l-0.438-0.438l-0.583-0.292l-0.292-0.583l-3.937-2.625l-0.875-1.75
		l1.312,0.438l3.062,1.312l1.75,2.187l0.027-0.055l0.41,0.492l0.875,1.75L678.25,590.494z M683.937,593.994l-0.875-0.875h0.875
		V593.994z M689.186,603.181l-0.375-0.125h0l0.156-0.313h0.219V603.181z"/>
	<path d="M161.588,561.621l-1.75-0.875l-0.437-2.187l0.875,0.438l4.812,0.437v-0.437l-6.562-2.625l-0.91-0.42l0.035-0.018
		l-4.812-2.187l-2.187-0.437v0.437l1.75,1.312l0.437,0.438l0.437,0.219l0.875,0.656l1.312,0.437l1.75,0.875l0.438,1.312h-5.687
		v-0.875l-1.312-1.312l-3.119-1.2l0.056-0.113l-2.625-0.875l-1.352-0.398l-1.273-0.477l-0.13,0.065l-1.377-0.405l0.194-0.097
		l-3.5-0.875l-1.75,0.438h-4.375l-3.5-0.875l-4.375-2.187h4.375l8.312,1.312h3.937v-0.437l-0.612-0.175l-0.263-0.263l-1.865-0.345
		l-0.322-0.092l-1.749-0.292l-7.875-1.458l-5.687-1.75l3.937-0.875v-0.438l-2.187-0.875l-3.062-0.875l-0.787,0.105l-0.525-0.105
		l-5.25,0.875l-0.437,1.312l3.062,0.438v0.437l-4.375-0.875v-3.062l-0.875-0.438l-2.187-0.438l0.437-2.187l-0.875-0.437
		l-0.875,0.437v-0.437h-0.875l-2.625,0.875l-0.875,0.875l1.481,0.135l-0.606,0.303l-2.187,0.875l-4.375,0.875l-0.5,0.25
		l-0.812,0.188l-0.437,0.437h0l0,0l-0.875,0.875v0.875l-2.187-0.875l-1.75,0.875l0.875,1.312l2.625,0.875l3.062,1.312l3.062,0.875
		l3.5,2.187l3.937,1.75l0.875,3.062l0.875,0.875v-0.175l1.312,1.05l4.375,0.875l0.875,1.312l3.5,1.75l0.437,0.875l2.625,1.75
		l3.062,0.437l4.375,0.875l7.437,0.438l5.25,1.312l0.875-1.75l-0.438-2.187l5.25,0.875h1.167l3.208,0.437l0.437,1.75l1.75,0.438
		l1.273-0.955l1.79-0.358h3.5l7,1.75l1.75-0.437l-6.125-3.5L161.588,561.621z M109.158,545.199l-0.942,0.236l0.437-1.75l1.312,0.438
		L109.158,545.199z M118.278,546.747v-0.438l1.75-0.875v1.312H118.278z M120.028,561.183v-0.875l1.75,0.437L120.028,561.183z"/>
	<polygon points="88.529,544.559 83.402,544.132 82.842,543.684 80.655,543.684 79.78,544.559 80.217,545.872 81.967,546.309 
		82.842,547.184 87.217,548.059 88.967,545.434 	"/>
	<polygon points="107.341,485.5 109.966,485.937 109.966,484.187 109.616,483.487 109.528,482.875 109.278,482.812 109.091,482.437 
		106.029,482 103.841,480.25 102.091,479.812 101.654,481.125 103.404,483.75 106.466,484.187 	"/>
	<polygon points="347.954,714.738 347.516,713.863 347.247,713.527 344.891,709.488 339.204,701.614 337.892,701.176 
		337.892,702.051 340.079,705.551 345.329,712.551 348.829,719.55 349.704,719.55 349.704,718.238 347.954,714.738 	"/>
	<polygon points="672.125,552.871 673.437,555.059 679.999,559.871 681.312,559.433 675.187,553.309 	"/>
	<polygon points="98.591,470.625 96.841,469.313 95.092,468.876 95.092,470.188 95.461,470.68 95.064,470.68 95.064,471.555 
		95.939,471.555 95.939,471.318 96.404,471.938 96.404,474.563 99.466,475.875 101.654,476.313 101.654,475 99.029,473.688 	"/>
	<polygon points="275.77,588.744 275.332,587.432 273.145,586.557 273.145,587.87 274.895,590.494 275.15,590.677 275.332,590.932 
		275.405,590.859 277.957,592.682 280.582,593.557 280.145,592.244 278.395,589.619 	"/>
	<polygon points="102.966,514.373 103.404,512.186 99.466,511.748 98.591,512.186 98.591,514.373 99.466,515.248 101.654,515.686 	
		"/>
	<polygon points="700.123,500.374 701.436,499.936 699.686,499.061 698.811,495.999 695.749,494.687 693.561,494.249 
		693.561,494.687 695.311,496.874 697.061,497.749 697.061,498.624 700.123,499.499 	"/>
	<polygon points="679.999,506.061 677.812,505.186 677.812,506.061 679.562,508.249 683.937,510.873 685.687,511.748 
		685.687,510.873 683.499,509.123 	"/>
	<polygon points="528.632,702.051 528.195,702.489 528.195,703.801 531.257,705.114 533.007,705.551 533.007,704.239 
		530.82,702.051 	"/>
	<polygon points="330.455,691.027 327.83,687.614 325.58,685.115 322.143,681.052 321.267,680.031 319.955,678.427 315.581,673.324 
		312.956,670.115 309.456,666.615 306.393,663.116 296.331,653.054 294.144,649.554 291.519,649.116 290.554,648.332 
		290.644,648.241 278.395,638.617 276.645,637.742 276.645,638.617 279.27,640.804 282.77,643.867 286.269,647.366 289.769,650.429 
		296.769,657.428 301.144,661.366 304.206,664.866 308.143,668.803 308.143,668.803 311.206,671.865 311.643,672.303 
		316.018,676.677 319.08,680.177 323.018,684.552 326.08,688.052 331.767,694.177 332.205,693.302 330.892,691.552 	"/>
	<polygon points="159.838,570.808 160.276,572.995 163.338,573.433 163.338,572.558 165.526,572.558 163.776,571.245 	"/>
	<polygon points="305.081,623.305 303.769,622.868 303.331,624.18 302.019,624.618 302.019,625.493 301.581,627.68 302.019,629.43 
		303.331,628.992 304.206,626.368 303.769,624.618 304.643,624.618 	"/>
	<polygon points="142.777,570.37 138.839,569.933 140.152,571.245 144.527,572.558 147.589,572.558 147.151,571.683 	"/>
	<polygon points="151.964,569.933 147.151,569.058 148.026,569.933 153.276,571.683 156.338,572.12 156.338,570.808 
		155.026,569.933 	"/>
	<polygon points="720.247,488.562 725.06,491.187 725.935,490.749 723.31,488.562 719.81,486.375 717.623,485.5 	"/>
	<polygon points="125.278,199.827 124.84,201.577 127.465,202.452 130.527,202.452 129.652,201.139 	"/>
	<polygon points="195.274,585.245 193.524,584.37 192.649,582.182 191.774,581.307 191.774,582.62 190.899,583.495 190.899,582.62 
		188.274,581.745 186.087,581.307 186.087,582.62 192.212,585.682 193.962,586.557 195.712,588.307 197.899,588.307 
		197.461,587.432 	"/>
	<polygon points="627.94,391.879 625.752,391.442 625.315,392.754 628.815,394.942 629.252,393.192 	"/>
	<polygon points="277.957,633.367 276.207,631.617 272.27,629.43 272.708,631.18 275.332,632.055 276.207,633.805 277.957,634.242 	
		"/>
	<polygon points="137.964,570.808 137.964,569.058 132.715,568.183 132.277,568.62 132.277,570.808 133.59,572.558 137.089,573.87 
		141.464,573.87 141.464,572.995 139.714,571.683 	"/>
	<polygon points="536.507,701.614 536.069,700.301 533.882,698.114 532.569,697.676 532.569,696.801 531.257,696.364 
		531.257,697.239 533.007,699.864 535.194,700.739 535.194,701.614 	"/>
	<polygon points="708.436,504.311 708.436,502.999 707.561,502.561 703.186,501.249 703.186,502.124 704.498,503.436 
		706.686,503.436 706.686,504.311 	"/>
	<polygon points="684.812,487.25 686.562,488.125 686.562,486.812 685.249,484.625 683.499,484.187 683.062,485.5 	"/>
	<polygon points="316.893,614.556 316.203,615.246 315.991,614.61 315.116,614.61 315.116,615.485 315.751,615.697 314.705,616.743 
		314.268,618.93 315.58,619.368 317.768,615.431 	"/>
	<polygon points="588.567,691.989 591.629,695.489 594.254,696.364 592.066,693.739 588.567,691.114 	"/>
	<polygon points="129.652,208.139 130.527,210.326 133.59,209.889 133.59,209.014 130.09,207.701 	"/>
	<polygon points="310.768,625.055 311.206,627.68 312.518,628.117 313.393,625.93 311.206,624.18 	"/>
	<polygon points="579.817,681.052 579.817,681.927 582.442,684.115 582.879,683.24 579.38,679.74 577.63,678.865 578.942,681.052 	
		"/>
	<polygon points="685.687,481.125 681.749,477.625 679.999,477.188 679.999,477.625 684.374,481.562 	"/>
	<polygon points="579.38,714.738 581.129,714.301 581.567,712.551 579.817,711.676 	"/>
	<polygon points="541.756,707.738 541.756,705.551 539.569,705.114 539.569,706.863 540.444,708.176 	"/>
	<polygon points="526.007,748.861 525.57,750.611 526.445,750.611 529.07,747.549 528.195,746.674 	"/>
	<polygon points="690.061,490.749 689.624,491.624 690.936,492.937 692.686,493.812 692.249,491.624 	"/>
	<polygon points="705.811,476.313 705.811,477.188 707.123,478.5 709.31,479.375 709.31,478.5 707.998,477.188 	"/>
	<polygon points="628.815,396.692 631.877,397.567 631.439,395.817 628.815,394.942 628.377,395.379 	"/>
	<polygon points="515.945,619.368 515.945,620.243 519.445,623.305 520.758,622.868 517.695,620.243 	"/>
	<polygon points="546.569,651.741 547.006,653.929 548.756,653.491 548.319,651.741 547.006,651.304 	"/>
	<polygon points="326.955,694.614 326.955,695.489 329.58,698.551 330.892,698.989 330.017,697.239 	"/>
	<polygon points="320.393,676.24 324.33,680.177 324.767,679.302 322.143,676.677 320.393,675.803 	"/>
	<polygon points="529.507,632.93 529.507,633.805 532.132,635.992 532.569,635.117 531.257,633.367 	"/>
	<polygon points="628.815,629.867 631.439,631.617 632.752,631.18 629.252,628.992 	"/>
	<polygon points="302.456,656.116 300.269,654.804 300.706,656.554 302.894,657.866 	"/>
	<polygon points="720.685,635.992 722.872,636.43 722.435,635.117 720.247,634.68 	"/>
	<polygon points="171.213,576.058 171.65,577.37 174.713,577.807 173.4,576.495 	"/>
	<polygon points="515.945,688.489 517.258,688.489 517.695,687.614 517.258,686.302 515.508,686.74 	"/>
	<polygon points="566.693,674.928 568.443,675.803 568.443,674.053 566.693,673.615 	"/>
	<polygon points="339.642,624.618 338.329,625.493 338.329,626.805 340.954,625.055 340.954,623.743 340.079,623.305 	"/>
	<polygon points="655.938,562.058 655.938,560.746 653.751,560.308 654.188,561.621 	"/>
	<polygon points="345.766,637.742 344.891,637.742 344.891,639.054 344.016,639.054 344.016,640.367 345.329,640.367 	"/>
	<polygon points="701.873,606.244 703.623,606.681 703.186,605.369 701.436,604.494 	"/>
	<polygon points="102.529,493.812 104.716,494.249 104.716,492.937 103.841,492.499 102.529,492.937 	"/>
	<polygon points="518.133,725.675 519.008,727.425 520.758,727.862 519.883,726.55 	"/>
	<polygon points="568.88,706.426 570.193,706.426 570.63,705.114 568.88,704.676 	"/>
	<polygon points="554.881,695.489 554.881,695.927 557.506,697.239 557.068,695.489 	"/>
	<polygon points="584.629,687.177 587.254,688.052 586.817,686.74 584.629,686.302 	"/>
	<polygon points="308.143,632.93 309.893,633.367 310.331,632.055 309.018,631.617 308.143,632.055 	"/>
	<polygon points="207.523,600.556 208.836,600.556 209.711,598.806 208.398,598.806 	"/>
	<polygon points="176.462,576.495 175.588,577.807 177.775,578.245 177.337,576.495 	"/>
	<polygon points="709.748,521.81 709.31,520.498 707.561,520.06 707.998,521.373 	"/>
	<polygon points="735.122,515.686 737.309,516.561 737.747,515.686 735.559,514.811 	"/>
	<polygon points="564.068,670.553 564.068,669.24 562.318,668.365 562.318,669.678 	"/>
	<polygon points="529.945,744.487 529.07,744.487 528.195,745.362 528.632,746.674 529.507,746.236 	"/>
	<polygon points="294.144,617.181 295.894,617.618 296.331,616.743 294.144,616.306 	"/>
	<polygon points="661.188,428.628 663.375,429.503 662.938,428.19 661.188,427.753 	"/>
	<polygon points="558.818,699.426 558.818,700.739 560.568,701.176 560.131,699.864 	"/>
	<polygon points="314.268,642.992 314.268,644.304 316.018,644.742 315.58,643.429 	"/>
	<polygon points="662.5,567.308 663.813,568.183 664.25,566.871 662.5,566.433 	"/>
	<polygon points="700.998,510.436 700.998,509.123 699.249,508.686 699.686,509.998 	"/>
	<polygon points="526.007,692.864 527.32,692.864 527.757,691.989 526.007,691.552 	"/>
	<polygon points="311.643,641.242 313.393,642.117 312.518,640.804 310.768,639.929 	"/>
	<polygon points="298.956,606.681 300.269,606.244 300.269,604.931 299.394,604.931 298.956,605.369 	"/>
	<polygon points="148.901,551.996 145.839,551.559 145.839,552.434 149.339,552.871 	"/>
	<polygon points="108.216,513.061 106.466,512.623 106.466,513.498 108.216,513.936 	"/>
	<polygon points="742.121,512.186 742.121,513.061 744.309,512.623 744.309,511.748 742.996,511.748 	"/>
	<polygon points="701.436,495.999 701.436,495.124 699.249,494.249 699.686,495.124 	"/>
	<polygon points="669.938,437.815 670.375,436.502 668.625,435.627 668.625,436.502 	"/>
	<polygon points="572.817,711.238 573.692,711.676 574.13,710.363 572.817,709.926 	"/>
	<polygon points="500.196,671.865 498.884,671.428 499.759,673.615 	"/>
	<polygon points="568.443,667.053 570.193,667.928 570.193,667.053 568.88,666.178 	"/>
	<polygon points="274.02,636.43 275.332,637.305 275.77,636.43 274.02,635.555 	"/>
	<polygon points="713.685,524.873 714.56,525.31 715.873,524.873 713.685,523.998 	"/>
	<polygon points="587.254,718.675 588.567,719.113 588.567,717.8 587.254,717.8 	"/>
	<polygon points="562.755,702.926 561.443,702.051 561.443,703.364 562.755,703.801 	"/>
	<polygon points="538.694,687.177 537.819,687.177 537.819,688.052 539.569,688.927 	"/>
	<polygon points="347.516,635.992 346.641,635.992 346.204,637.305 347.516,637.305 	"/>
	<polygon points="711.06,513.498 711.498,512.623 709.748,511.748 709.748,512.623 	"/>
	<polygon points="572.817,706.863 573.692,707.301 574.13,705.989 572.817,705.989 	"/>
	<polygon points="557.506,663.553 559.256,663.116 557.506,662.678 	"/>
	<polygon points="282.332,635.992 281.895,636.43 282.77,638.179 282.77,635.992 	"/>
	<polygon points="305.956,620.68 304.643,620.243 304.643,621.555 305.518,621.555 	"/>
	<polygon points="294.581,614.556 295.456,614.993 295.894,613.681 294.581,613.681 	"/>
	<polygon points="249.084,605.369 249.959,605.806 250.834,605.369 249.084,604.494 	"/>
	<polygon points="114.341,562.496 115.653,562.933 115.653,562.058 114.341,561.621 	"/>
	<polygon points="165.526,559.433 165.526,560.308 166.838,560.746 166.838,559.871 	"/>
	<polygon points="693.561,488.999 692.249,488.562 692.249,489.437 693.561,489.874 	"/>
	<polygon points="568.005,724.363 568.88,724.8 569.318,723.925 568.005,723.488 	"/>
	<polygon points="340.954,713.426 340.954,714.301 342.267,714.738 341.829,713.426 	"/>
	<rect x="556.193" y="704.239" width="0.875" height="1.312"/>
	<polygon points="340.079,699.426 341.392,699.426 340.079,698.114 	"/>
	<polygon points="317.768,646.929 317.768,648.241 319.08,648.241 	"/>
	<rect x="270.083" y="628.117" width="1.312" height="0.875"/>
	<polygon points="267.02,626.368 267.895,626.805 268.333,625.93 267.02,625.493 	"/>
	<polygon points="206.648,604.494 207.523,602.744 206.648,602.744 	"/>
	<polygon points="494.946,598.806 496.259,599.244 496.259,598.369 494.946,597.932 	"/>
	<polygon points="127.027,569.058 129.215,568.62 127.902,568.183 	"/>
	<polygon points="169.463,561.621 170.775,561.183 169.025,560.746 	"/>
	<rect x="88.529" y="548.934" width="1.312" height="0.875"/>
	<rect x="715.435" y="506.499" width="0.875" height="1.312"/>
	<polygon points="665.563,433.002 666.875,433.44 666.438,432.127 665.563,432.127 	"/>
	<polygon points="522.945,749.736 522.945,748.861 521.632,748.861 521.632,749.299 	"/>
	<polygon points="599.504,713.863 600.816,714.301 599.504,712.988 	"/>
	<polygon points="535.194,707.301 535.194,706.426 533.882,706.426 533.882,706.863 	"/>
	<polygon points="325.642,681.052 326.517,682.365 326.955,681.49 	"/>
	<polygon points="316.455,645.617 316.455,646.492 317.768,646.054 	"/>
	<polygon points="744.746,638.617 744.746,639.492 746.059,639.054 	"/>
	<polygon points="306.831,607.556 305.956,607.556 306.393,608.868 	"/>
	<polygon points="120.465,565.558 121.778,565.996 121.778,565.121 120.903,565.121 	"/>
	<polygon points="99.904,538.435 100.341,537.122 99.466,537.122 	"/>
	<polygon points="701.873,504.749 700.561,504.749 700.561,505.186 701.873,505.624 	"/>
	<polygon points="681.749,483.75 683.499,484.187 681.749,483.312 	"/>
	<rect x="533.444" y="738.799" width="0.875" height="0.875"/>
	<rect x="583.754" y="712.988" width="0.875" height="0.875"/>
	<rect x="562.755" y="704.676" width="0.875" height="0.875"/>
	<polygon points="671.25,647.366 672.562,647.366 671.25,646.929 	"/>
	<rect x="289.332" y="642.992" width="0.875" height="0.875"/>
	<rect x="262.646" y="631.617" width="0.875" height="0.875"/>
	<polygon points="528.632,631.18 527.32,630.742 527.32,631.18 	"/>
	<rect x="230.71" y="611.931" width="0.875" height="0.875"/>
	<polygon points="257.396,611.056 258.708,611.056 257.396,610.618 	"/>
	<polygon points="252.146,607.119 253.459,607.119 252.146,606.681 	"/>
	<rect x="187.837" y="579.12" width="0.875" height="0.875"/>
	<polygon points="164.213,575.62 164.651,574.745 163.776,574.308 	"/>
	<rect x="120.903" y="569.495" width="0.875" height="0.875"/>
	<polygon points="120.465,539.309 121.778,539.309 120.465,538.872 	"/>
	<polygon points="97.716,529.685 99.029,529.685 97.716,529.247 	"/>
	<polygon points="718.06,526.185 718.06,526.623 719.372,526.623 	"/>
	<polygon points="718.497,513.498 717.623,513.061 718.06,514.373 	"/>
	<polygon points="531.257,743.612 532.132,743.174 531.257,742.737 	"/>
	<polygon points="514.195,729.175 513.32,729.175 513.758,730.05 	"/>
	<polygon points="323.455,691.114 323.893,690.239 323.018,690.239 	"/>
	<polygon points="293.269,659.616 294.144,659.616 293.269,658.741 	"/>
	<polygon points="320.393,650.429 321.268,650.429 320.393,649.554 	"/>
	<polygon points="274.02,627.242 274.895,627.68 274.457,626.805 	"/>
	<polygon points="264.833,625.055 265.27,624.18 264.396,624.18 	"/>
	<polygon points="295.019,609.306 295.019,610.181 295.894,609.743 	"/>
	<polygon points="256.083,608.868 255.208,608.868 255.646,609.743 	"/>
	<polygon points="212.773,605.806 213.648,605.806 212.773,604.931 	"/>
	<polygon points="277.082,602.306 276.207,602.306 276.645,603.181 	"/>
	<polygon points="283.207,597.932 282.332,597.932 282.77,598.806 	"/>
	<polygon points="284.957,596.619 285.394,595.744 284.52,595.744 	"/>
	<polygon points="116.091,572.995 116.965,572.995 116.091,572.12 	"/>
	<polygon points="690.499,515.248 689.624,515.248 690.061,516.123 	"/>
	<polygon points="697.061,502.999 697.936,502.999 697.061,502.124 	"/>
	<polygon points="110.841,481.562 111.716,481.125 110.841,480.687 	"/>
	<polygon points="111.278,477.625 111.278,478.5 112.153,478.063 	"/>
	<polygon points="650.688,417.253 649.813,416.378 649.813,417.253 	"/>
</g>
</svg>
